<svg width="344" height="24" viewBox="0 0 344 24" fill="none" xmlns="http://www.w3.org/2000/svg">
<path d="M10.9416 16.8199L12.5081 7.62726H15.0137L13.446 16.8199H10.9416ZM22.4986 7.82542C22.0023 7.63918 21.2244 7.43933 20.253 7.43933C17.777 7.43933 16.0331 8.68613 16.0182 10.4731C16.0042 11.794 17.2633 12.5309 18.2137 12.9706C19.1891 13.4213 19.5169 13.7086 19.5122 14.1109C19.506 14.7271 18.7334 15.0085 18.0131 15.0085C17.0103 15.0085 16.4775 14.8692 15.6546 14.5261L15.3316 14.38L14.98 16.4378C15.5653 16.6945 16.6474 16.9168 17.7712 16.9283C20.4051 16.9283 22.115 15.6957 22.1344 13.7875C22.1437 12.7417 21.4762 11.946 20.0306 11.2898C19.1548 10.8646 18.6184 10.5808 18.6241 10.1502C18.6241 9.76806 19.0781 9.35948 20.0592 9.35948C20.8784 9.34675 21.4721 9.52543 21.9345 9.71167L22.159 9.81775L22.4986 7.82542ZM28.9465 7.62712H27.0104C26.4107 7.62712 25.9617 7.79081 25.6984 8.38945L21.9771 16.8139H24.6083C24.6083 16.8139 25.0384 15.6812 25.1357 15.4324C25.4232 15.4324 27.9793 15.4364 28.3447 15.4364C28.4196 15.7582 28.6495 16.8139 28.6495 16.8139H30.9745L28.9465 7.62683V7.62712ZM25.8746 13.5632C26.0819 13.0335 26.873 10.9934 26.873 10.9934C26.8582 11.0179 27.0787 10.4612 27.2052 10.116L27.3745 10.9086C27.3745 10.9086 27.8543 13.1029 27.9546 13.563H25.8746V13.5632ZM8.81446 7.62712L6.36138 13.8961L6.10005 12.6222C5.64333 11.1536 4.22052 9.56248 2.62988 8.76592L4.87297 16.8053L7.52403 16.8023L11.4688 7.62702L8.81446 7.62698" fill="#0E4595"/>
<path d="M4.07241 7.62679H0.0320261L0 7.81805C3.14338 8.57897 5.22324 10.4178 6.08681 12.6276L5.20826 8.40316C5.05663 7.82105 4.61672 7.64731 4.07251 7.62702" fill="#F2AE14"/>
<path d="M109.771 23.9448V22.3503C109.771 21.7388 109.399 21.3403 108.788 21.3403C108.467 21.3403 108.124 21.4468 107.885 21.7895C107.699 21.4969 107.436 21.3403 107.035 21.3403C106.885 21.3339 106.737 21.3645 106.603 21.4294C106.468 21.4944 106.352 21.5916 106.265 21.7125V21.3917H105.76V23.9429H106.265V22.4831C106.265 22.034 106.53 21.819 106.902 21.819C107.275 21.819 107.487 22.0583 107.487 22.4831V23.9448H107.992V22.4831C107.992 22.034 108.258 21.819 108.63 21.819C109.002 21.819 109.214 22.0583 109.214 22.4831V23.9448H109.771ZM118.063 21.4199H117.132V20.6499H116.629V21.4199H116.097V21.869H116.629V23.0677C116.629 23.6522 116.841 23.9981 117.479 23.9981C117.72 23.993 117.957 23.9292 118.169 23.812L118.009 23.3628C117.865 23.4524 117.699 23.4986 117.53 23.4957C117.265 23.4957 117.132 23.3359 117.132 23.0702V21.8485H118.062V21.4231L118.063 21.4199ZM122.793 21.3403C122.656 21.3373 122.52 21.3699 122.398 21.4352C122.277 21.5004 122.175 21.596 122.102 21.7125V21.3917H121.597V23.9429H122.102V22.5101C122.102 22.0846 122.314 21.819 122.66 21.819C122.777 21.8237 122.893 21.8416 123.005 21.8723L123.165 21.3936C123.043 21.3629 122.919 21.345 122.793 21.3403ZM115.644 21.606C115.379 21.4199 115.007 21.3403 114.608 21.3403C113.97 21.3403 113.572 21.6329 113.572 22.1379C113.572 22.5633 113.864 22.802 114.422 22.8822L114.688 22.9085C114.98 22.9618 115.166 23.0683 115.166 23.2011C115.166 23.3872 114.954 23.522 114.555 23.522C114.25 23.5282 113.952 23.435 113.705 23.2563L113.439 23.6548C113.811 23.9204 114.263 23.9756 114.53 23.9756C115.274 23.9756 115.673 23.6304 115.673 23.1517C115.673 22.7026 115.352 22.4876 114.795 22.4074L114.53 22.3811C114.29 22.3548 114.081 22.2746 114.081 22.1154C114.081 21.9294 114.293 21.7946 114.586 21.7946C114.906 21.7946 115.223 21.9274 115.383 22.007L115.644 21.606ZM123.351 22.6692C123.351 23.4392 123.856 23.9981 124.68 23.9981C125.052 23.9981 125.318 23.9185 125.584 23.7055L125.318 23.307C125.13 23.4593 124.896 23.5437 124.654 23.5463C124.205 23.5463 123.856 23.2011 123.856 22.6961C123.856 22.1912 124.2 21.8485 124.654 21.8485C124.896 21.8512 125.13 21.9355 125.318 22.0879L125.584 21.6894C125.318 21.477 125.052 21.3968 124.68 21.3968C123.883 21.3435 123.351 21.9018 123.351 22.6724V22.6692ZM119.79 21.3403C119.046 21.3403 118.541 21.8716 118.541 22.6692C118.541 23.4668 119.072 23.9981 119.843 23.9981C120.218 24.006 120.584 23.884 120.879 23.6529L120.613 23.2807C120.4 23.4462 120.139 23.5392 119.869 23.5463C119.524 23.5463 119.152 23.334 119.099 22.8822H120.986V22.6698C120.986 21.8723 120.507 21.341 119.79 21.341V21.3403ZM119.764 21.819C120.136 21.819 120.402 22.0583 120.428 22.4568H119.046C119.126 22.0846 119.367 21.819 119.764 21.819ZM112.881 22.6692V21.3936H112.376V21.7144C112.19 21.4751 111.927 21.3422 111.552 21.3422C110.834 21.3422 110.303 21.9005 110.303 22.6711C110.303 23.4418 110.834 24 111.552 24C111.924 24 112.19 23.8672 112.376 23.6278V23.9487H112.881V22.6692ZM110.834 22.6692C110.834 22.1905 111.127 21.819 111.632 21.819C112.111 21.819 112.402 22.1912 112.402 22.6692C112.402 23.1742 112.081 23.5194 111.632 23.5194C111.127 23.5457 110.834 23.1472 110.834 22.6692ZM130.474 21.3403C130.337 21.3373 130.201 21.3699 130.08 21.4352C129.959 21.5004 129.856 21.596 129.783 21.7125V21.3917H129.278V23.9429H129.783V22.5101C129.783 22.0846 129.995 21.819 130.341 21.819C130.458 21.8237 130.573 21.8416 130.686 21.8723L130.846 21.3936C130.724 21.3629 130.599 21.345 130.474 21.3403H130.474ZM128.508 22.6692V21.3936H128.003V21.7144C127.817 21.4751 127.554 21.3422 127.179 21.3422C126.461 21.3422 125.929 21.9005 125.929 22.6711C125.929 23.4418 126.461 24 127.179 24C127.551 24 127.817 23.8672 128.003 23.6278V23.9487H128.508V22.6692ZM126.461 22.6692C126.461 22.1905 126.754 21.819 127.259 21.819C127.738 21.819 128.029 22.1912 128.029 22.6692C128.029 23.1742 127.708 23.5194 127.259 23.5194C126.754 23.5457 126.461 23.1472 126.461 22.6692ZM133.637 22.6692V20.3836H133.132V21.7125C132.946 21.4731 132.683 21.3403 132.308 21.3403C131.591 21.3403 131.059 21.8986 131.059 22.6692C131.059 23.4398 131.59 23.9981 132.308 23.9981C132.68 23.9981 132.946 23.8653 133.132 23.6259V23.9467H133.637V22.6692ZM131.591 22.6692C131.591 22.1905 131.883 21.819 132.388 21.819C132.867 21.819 133.158 22.1912 133.158 22.6692C133.158 23.1742 132.838 23.5194 132.388 23.5194C131.883 23.5463 131.59 23.1479 131.59 22.6692H131.591Z" fill="black"/>
<path d="M115.06 2.04626H124.282V17.088H115.06V2.04626Z" fill="#FF5F00"/>
<path d="M115.99 9.56715C115.99 8.12012 116.318 6.69191 116.949 5.38947C117.579 4.08702 118.496 2.94409 119.631 2.04626C118.22 0.936645 116.525 0.24651 114.74 0.0547432C112.955 -0.137024 111.152 0.177316 109.537 0.961829C107.922 1.74634 106.561 2.96937 105.608 4.49111C104.656 6.01285 104.151 7.77189 104.151 9.56715C104.151 11.3624 104.656 13.1215 105.608 14.6432C106.561 16.1649 107.922 17.388 109.537 18.1725C111.152 18.957 112.955 19.2713 114.74 19.0796C116.525 18.8878 118.22 18.1977 119.631 17.088C118.496 16.1902 117.579 15.0473 116.949 13.7448C116.318 12.4424 115.99 11.0142 115.99 9.56715Z" fill="#EB001B"/>
<path d="M135.125 9.56715C135.126 11.3611 134.623 13.1192 133.672 14.6404C132.721 16.1616 131.361 17.3844 129.748 18.169C128.134 18.9536 126.333 19.2683 124.549 19.0772C122.765 18.886 121.071 18.1967 119.661 17.088C120.796 16.1904 121.713 15.0476 122.344 13.7451C122.974 12.4426 123.302 11.0142 123.302 9.56715C123.302 8.12006 122.974 6.69173 122.344 5.38923C121.713 4.08674 120.796 2.94386 119.661 2.04626C121.071 0.937603 122.765 0.248277 124.549 0.0571175C126.333 -0.134042 128.134 0.180684 129.748 0.965298C131.361 1.74991 132.721 2.97274 133.672 4.49391C134.623 6.01509 135.126 7.77319 135.125 9.56715Z" fill="#F79E1B"/>
<path d="M57.306 8.41131C56.9187 8.14504 56.4133 8.01158 55.7898 8.01158H53.3758C53.1847 8.01158 53.0791 8.10718 53.059 8.29819L52.0784 14.4538C52.0682 14.5143 52.0833 14.5695 52.1236 14.6198C52.1637 14.6702 52.2141 14.6952 52.2744 14.6952H53.4211C53.6222 14.6952 53.7327 14.5998 53.753 14.4086L54.0245 12.7491C54.0344 12.6687 54.0698 12.6033 54.1302 12.5529C54.1905 12.5027 54.2659 12.4698 54.3565 12.4547C54.447 12.4398 54.5323 12.4322 54.613 12.4322C54.6933 12.4322 54.7888 12.4373 54.8996 12.4473C55.0102 12.4574 55.0807 12.4623 55.1109 12.4623C55.9758 12.4623 56.6547 12.2185 57.1476 11.7306C57.6403 11.2428 57.887 10.5665 57.887 9.70134C57.887 9.10797 57.6932 8.67799 57.306 8.41131ZM56.0614 10.2596C56.0109 10.6117 55.8803 10.8429 55.6691 10.9536C55.4579 11.0644 55.1561 11.1195 54.7639 11.1195L54.266 11.1346L54.5226 9.52024C54.5426 9.40971 54.6079 9.35437 54.7186 9.35437H55.0054C55.4075 9.35437 55.6994 9.41233 55.8804 9.52781C56.0614 9.64356 56.1218 9.88755 56.0614 10.2596Z" fill="#003087"/>
<path d="M82.7808 8.01158H81.6645C81.5536 8.01158 81.4883 8.06692 81.4683 8.1776L80.4876 14.4538L80.4725 14.484C80.4725 14.5345 80.4926 14.5821 80.5329 14.6274C80.573 14.6726 80.6235 14.6952 80.6837 14.6952H81.6796C81.8704 14.6952 81.9761 14.5998 81.9965 14.4086L82.9771 8.23778V8.22279C82.9771 8.082 82.9115 8.01158 82.7808 8.01158Z" fill="#009CDE"/>
<path d="M69.2928 10.4405C69.2928 10.3903 69.2726 10.3425 69.2326 10.2973C69.1923 10.252 69.1469 10.2293 69.0968 10.2293H67.9351C67.8242 10.2293 67.7337 10.2799 67.6635 10.3802L66.0643 12.7339L65.4004 10.4708C65.3499 10.31 65.2394 10.2293 65.0685 10.2293H63.9368C63.8864 10.2293 63.8412 10.252 63.8012 10.2973C63.7608 10.3425 63.7408 10.3904 63.7408 10.4405C63.7408 10.4608 63.8389 10.7574 64.035 11.3307C64.2311 11.9041 64.4423 12.5227 64.6686 13.1866C64.895 13.8503 65.0131 14.2026 65.0232 14.2425C64.1983 15.3691 63.7861 15.9727 63.7861 16.053C63.7861 16.1839 63.8514 16.2492 63.9822 16.2492H65.1439C65.2545 16.2492 65.345 16.199 65.4155 16.0984L69.2628 10.5461C69.2828 10.5262 69.2928 10.4911 69.2928 10.4405Z" fill="#003087"/>
<path d="M80.1104 10.2293H78.9637C78.8228 10.2293 78.7376 10.3953 78.7074 10.7273C78.4456 10.3251 77.9681 10.1237 77.274 10.1237C76.5498 10.1237 75.9336 10.3953 75.4259 10.9385C74.9178 11.4816 74.664 12.1205 74.664 12.8546C74.664 13.4482 74.8374 13.9208 75.1844 14.2727C75.5314 14.625 75.9966 14.8008 76.5801 14.8008C76.8717 14.8008 77.1684 14.7404 77.4701 14.6198C77.7719 14.4991 78.0081 14.3382 78.1794 14.137C78.1794 14.1471 78.1691 14.1923 78.1491 14.2727C78.1289 14.3533 78.1189 14.4138 78.1189 14.4538C78.1189 14.6149 78.1841 14.6951 78.3151 14.6951H79.3562C79.547 14.6951 79.6579 14.5998 79.688 14.4085L80.3066 10.4707C80.3165 10.4104 80.3014 10.3551 80.2613 10.3048C80.221 10.2545 80.1708 10.2293 80.1104 10.2293ZM78.1416 13.2016C77.8851 13.453 77.5758 13.5787 77.2137 13.5787C76.9219 13.5787 76.6858 13.4984 76.5046 13.3373C76.3235 13.1767 76.233 12.9554 76.233 12.6735C76.233 12.3016 76.3587 11.987 76.6102 11.7306C76.8614 11.4741 77.1735 11.3459 77.5457 11.3459C77.827 11.3459 78.0609 11.4289 78.2472 11.5947C78.4331 11.7608 78.5264 11.9896 78.5264 12.2814C78.5263 12.6434 78.398 12.9503 78.1416 13.2016Z" fill="#009CDE"/>
<path d="M62.9714 10.2293H61.8247C61.6837 10.2293 61.5984 10.3953 61.5682 10.7273C61.2966 10.3251 60.8188 10.1237 60.1349 10.1237C59.4107 10.1237 58.7945 10.3953 58.2867 10.9385C57.7787 11.4816 57.5248 12.1205 57.5248 12.8546C57.5248 13.4482 57.6983 13.9208 58.0454 14.2727C58.3924 14.625 58.8575 14.8008 59.4409 14.8008C59.7224 14.8008 60.0143 14.7404 60.3159 14.6198C60.6177 14.4991 60.8591 14.3382 61.0401 14.137C60.9998 14.2577 60.9798 14.3633 60.9798 14.4538C60.9798 14.6149 61.0451 14.6951 61.1759 14.6951H62.2169C62.4079 14.6951 62.5186 14.5998 62.5488 14.4085L63.1674 10.4707C63.1773 10.4104 63.1623 10.3551 63.1221 10.3048C63.0819 10.2545 63.0316 10.2293 62.9714 10.2293ZM61.0025 13.2091C60.7459 13.4558 60.4315 13.5787 60.0595 13.5787C59.7677 13.5787 59.5338 13.4984 59.3579 13.3373C59.1818 13.1767 59.0939 12.9554 59.0939 12.6735C59.0939 12.3016 59.2195 11.987 59.4711 11.7306C59.7224 11.4741 60.0342 11.3459 60.4065 11.3459C60.688 11.3459 60.9218 11.4289 61.1081 11.5947C61.294 11.7608 61.3872 11.9896 61.3872 12.2814C61.3872 12.6535 61.259 12.9629 61.0025 13.2091Z" fill="#003087"/>
<path d="M74.4451 8.41131C74.0578 8.14504 73.5525 8.01158 72.9289 8.01158H70.53C70.3287 8.01158 70.2181 8.10718 70.1981 8.29819L69.2174 14.4538C69.2073 14.5143 69.2223 14.5695 69.2627 14.6198C69.3026 14.6702 69.3532 14.6952 69.4135 14.6952H70.6506C70.7713 14.6952 70.8517 14.6299 70.892 14.4991L71.1637 12.7491C71.1736 12.6687 71.2088 12.6033 71.2693 12.5529C71.3296 12.5027 71.405 12.4698 71.4956 12.4547C71.5861 12.4398 71.6714 12.4322 71.7521 12.4322C71.8325 12.4322 71.928 12.4373 72.0386 12.4473C72.1493 12.4574 72.2199 12.4623 72.2499 12.4623C73.1149 12.4623 73.7937 12.2185 74.2867 11.7306C74.7795 11.2428 75.0259 10.5665 75.0259 9.70134C75.026 9.10797 74.8323 8.67799 74.4451 8.41131ZM72.8987 10.8932C72.6774 11.0441 72.3454 11.1195 71.903 11.1195L71.4201 11.1346L71.6767 9.5202C71.6966 9.40966 71.762 9.35432 71.8728 9.35432H72.1442C72.3655 9.35432 72.5415 9.36437 72.6725 9.38443C72.803 9.40468 72.9289 9.4674 73.0496 9.573C73.1704 9.6786 73.2306 9.83208 73.2306 10.0332C73.2306 10.4557 73.1199 10.7423 72.8987 10.8932Z" fill="#009CDE"/>
<path d="M156.226 2.28902H187.128V22.0979H156.226V2.28902Z" fill="#16366F"/>
<path d="M174.015 12.1935C174.015 16.1213 170.831 19.3048 166.903 19.3048C162.975 19.3048 159.791 16.1211 159.791 12.1935C159.791 8.26603 162.975 5.08207 166.903 5.08207C170.83 5.08207 174.015 8.26615 174.015 12.1935Z" fill="#D9222A"/>
<path d="M176.45 5.08191C174.613 5.08191 172.938 5.77903 171.676 6.92279C171.419 7.1561 171.179 7.40759 170.958 7.67537H172.395C172.592 7.91454 172.773 8.16615 172.937 8.42862H170.416C170.265 8.67112 170.128 8.92261 170.006 9.18167H173.347C173.461 9.42671 173.562 9.67808 173.648 9.93457H169.705C169.623 10.1816 169.554 10.433 169.499 10.6877H173.854C173.961 11.1825 174.014 11.6873 174.014 12.1935C174.014 12.9832 173.885 13.743 173.648 14.4525H169.705C169.791 14.7091 169.892 14.9606 170.006 15.2056H173.347C173.225 15.4647 173.088 15.7162 172.937 15.9588H170.416C170.581 16.2215 170.762 16.473 170.958 16.7114H172.395C172.174 16.9797 171.934 17.2314 171.676 17.4646C172.939 18.6083 174.613 19.305 176.45 19.305C180.378 19.305 183.562 16.1213 183.562 12.1936C183.562 8.26635 180.378 5.08227 176.45 5.08227" fill="#EE9F2D"/>
<path d="M182.614 16.1576C182.614 16.0308 182.717 15.9278 182.844 15.9278C182.971 15.9278 183.074 16.0308 183.074 16.1576C183.074 16.2843 182.971 16.3873 182.844 16.3873C182.717 16.3873 182.614 16.2844 182.614 16.1576ZM182.844 16.3322C182.941 16.3322 183.019 16.254 183.019 16.1576C183.019 16.0612 182.941 15.9831 182.844 15.9831H182.844C182.748 15.983 182.67 16.0609 182.67 16.1571V16.1576C182.669 16.254 182.747 16.3322 182.844 16.3323C182.844 16.3322 182.844 16.3322 182.844 16.3322ZM182.813 16.2585H182.766V16.0567H182.851C182.869 16.0567 182.887 16.0567 182.903 16.0668C182.919 16.0778 182.928 16.0973 182.928 16.1174C182.928 16.14 182.915 16.1612 182.893 16.1694L182.931 16.2585H182.878L182.848 16.1787H182.813L182.813 16.2585ZM182.813 16.1441H182.839C182.849 16.1441 182.859 16.1448 182.868 16.1401C182.876 16.1351 182.88 16.1259 182.88 16.117C182.88 16.1092 182.875 16.1003 182.868 16.0965C182.86 16.0913 182.847 16.0925 182.838 16.0925H182.813V16.1441ZM165.243 12.9721C165.162 12.9628 165.126 12.9602 165.07 12.9602C164.633 12.9602 164.411 13.1103 164.411 13.4066C164.411 13.5893 164.519 13.7056 164.688 13.7056C165.002 13.7056 165.229 13.4061 165.243 12.9721ZM165.804 14.2794H165.164L165.179 13.9753C164.984 14.2156 164.724 14.3298 164.37 14.3298C163.951 14.3298 163.664 14.003 163.664 13.5284C163.664 12.8143 164.164 12.3977 165.02 12.3977C165.108 12.3977 165.22 12.4056 165.335 12.4203C165.359 12.3236 165.365 12.2822 165.365 12.2301C165.365 12.0357 165.23 11.9632 164.87 11.9632C164.492 11.9589 164.18 12.0531 164.053 12.0952C164.061 12.0465 164.16 11.4353 164.16 11.4353C164.544 11.3225 164.798 11.2801 165.084 11.2801C165.747 11.2801 166.098 11.5777 166.097 12.1403C166.098 12.291 166.073 12.477 166.034 12.7215C165.967 13.1467 165.824 14.0573 165.804 14.2794ZM163.341 14.2794H162.569L163.012 11.5062L162.024 14.2794H161.498L161.433 11.5221L160.968 14.2794H160.245L160.849 10.672H161.959L162.027 12.6912L162.704 10.672H163.939L163.341 14.2794ZM177.405 12.9721C177.324 12.9628 177.288 12.9602 177.233 12.9602C176.795 12.9602 176.574 13.1103 176.574 13.4066C176.574 13.5893 176.682 13.7056 176.851 13.7056C177.165 13.7056 177.392 13.4061 177.405 12.9721ZM177.967 14.2794H177.327L177.342 13.9753C177.147 14.2156 176.886 14.3298 176.533 14.3298C176.114 14.3298 175.827 14.003 175.827 13.5284C175.827 12.8143 176.326 12.3977 177.183 12.3977C177.27 12.3977 177.382 12.4056 177.497 12.4203C177.521 12.3236 177.527 12.2822 177.527 12.2301C177.527 12.0357 177.393 11.9632 177.032 11.9632C176.655 11.9589 176.343 12.0531 176.215 12.0952C176.223 12.0465 176.322 11.4353 176.322 11.4353C176.707 11.3225 176.961 11.2801 177.246 11.2801C177.909 11.2801 178.26 11.5777 178.26 12.1403C178.261 12.291 178.236 12.477 178.197 12.7215C178.13 13.1467 177.986 14.0573 177.967 14.2794ZM169.235 14.2348C169.024 14.3014 168.859 14.3298 168.681 14.3298C168.286 14.3298 168.071 14.103 168.071 13.6854C168.065 13.5558 168.127 13.2148 168.176 12.9034C168.221 12.6294 168.511 10.9016 168.511 10.9016H169.279L169.189 11.3456H169.653L169.548 12.0507H169.083C168.994 12.6086 168.867 13.3036 168.865 13.3957C168.865 13.5469 168.946 13.6129 169.129 13.6129C169.217 13.6129 169.286 13.604 169.338 13.5852L169.235 14.2348ZM171.588 14.211C171.325 14.2916 171.07 14.3306 170.801 14.3299C169.942 14.329 169.494 13.8804 169.494 13.0212C169.494 12.0184 170.064 11.2801 170.837 11.2801C171.47 11.2801 171.874 11.6935 171.874 12.3417C171.874 12.5568 171.846 12.7668 171.779 13.0633H170.251C170.199 13.4888 170.472 13.6661 170.918 13.6661C171.193 13.6661 171.441 13.6095 171.716 13.4814L171.588 14.211ZM171.157 12.4718C171.161 12.4107 171.238 11.9482 170.8 11.9482C170.556 11.9482 170.381 12.1345 170.31 12.4718H171.157ZM166.267 12.273C166.267 12.6441 166.447 12.9 166.855 13.0922C167.168 13.2391 167.216 13.2827 167.216 13.4159C167.216 13.5988 167.079 13.6813 166.773 13.6813C166.543 13.6813 166.329 13.6454 166.081 13.5656C166.081 13.5656 165.98 14.2122 165.975 14.2431C166.151 14.2814 166.307 14.3168 166.779 14.3299C167.593 14.3299 167.97 14.0197 167.97 13.3493C167.97 12.9462 167.812 12.7097 167.425 12.5319C167.102 12.3833 167.064 12.3501 167.064 12.2131C167.064 12.0545 167.193 11.9736 167.442 11.9736C167.594 11.9736 167.801 11.9898 167.997 12.0177L168.107 11.3373C167.907 11.3056 167.604 11.2801 167.427 11.2801C166.564 11.2801 166.265 11.7313 166.267 12.273ZM175.344 11.3572C175.558 11.3572 175.758 11.4135 176.033 11.5522L176.16 10.7692C176.047 10.7249 175.648 10.4642 175.311 10.4642C174.794 10.4642 174.358 10.7205 174.051 11.1436C173.602 10.9952 173.418 11.2952 173.192 11.594L172.992 11.6407C173.007 11.5423 173.021 11.4446 173.016 11.3457H172.307C172.21 12.2536 172.039 13.1732 171.904 14.0823L171.869 14.2794H172.642C172.771 13.4418 172.841 12.9054 172.884 12.5425L173.175 12.3807C173.218 12.219 173.354 12.1645 173.627 12.171C173.591 12.3694 173.572 12.5708 173.572 12.7726C173.572 13.7323 174.09 14.3299 174.921 14.3299C175.136 14.3299 175.319 14.3017 175.604 14.2246L175.74 13.4022C175.484 13.5281 175.274 13.5874 175.084 13.5874C174.635 13.5874 174.363 13.2561 174.363 12.7085C174.363 11.9142 174.767 11.3572 175.344 11.3572Z" fill="black"/>
<path d="M163.563 14.065H162.791L163.234 11.2922L162.246 14.065H161.72L161.655 11.3081L161.19 14.065H160.467L161.071 10.4581H162.181L162.212 12.691L162.961 10.4581H164.161L163.563 14.065Z" fill="white"/>
<path d="M181.879 10.6721L181.708 11.7144C181.497 11.4366 181.27 11.2355 180.971 11.2355C180.581 11.2355 180.226 11.5308 179.994 11.9655C179.671 11.8985 179.337 11.7847 179.337 11.7847L179.337 11.7874C179.363 11.5444 179.373 11.3961 179.371 11.3458H178.662C178.565 12.2537 178.393 13.1734 178.259 14.0824L178.224 14.2795H178.996C179.1 13.6022 179.18 13.0398 179.239 12.5937C179.503 12.3554 179.635 12.1474 179.902 12.1612C179.784 12.4467 179.714 12.7755 179.714 13.1127C179.714 13.8462 180.085 14.33 180.647 14.33C180.93 14.33 181.147 14.2325 181.358 14.0063L181.322 14.279H182.053L182.641 10.6721H181.879ZM180.914 13.6015C180.651 13.6015 180.518 13.4071 180.518 13.0232C180.518 12.4467 180.767 12.0378 181.117 12.0378C181.382 12.0378 181.526 12.24 181.526 12.6125C181.526 13.1942 181.273 13.6015 180.914 13.6015Z" fill="black"/>
<path d="M165.464 12.7584C165.383 12.7491 165.348 12.7465 165.292 12.7465C164.855 12.7465 164.633 12.8966 164.633 13.1929C164.633 13.3753 164.741 13.4919 164.91 13.4919C165.224 13.4918 165.451 13.1924 165.464 12.7584ZM166.026 14.0652H165.386L165.401 13.7616C165.206 14.0014 164.945 14.1161 164.592 14.1161C164.173 14.1161 163.887 13.7893 163.887 13.3147C163.887 12.6003 164.385 12.1839 165.242 12.1839C165.33 12.1839 165.442 12.1919 165.557 12.2066C165.581 12.1098 165.587 12.0684 165.587 12.0161C165.587 11.8216 165.452 11.7495 165.092 11.7495C164.714 11.7452 164.403 11.8395 164.274 11.8811C164.283 11.8325 164.381 11.2219 164.381 11.2219C164.766 11.1087 165.02 11.0662 165.305 11.0662C165.968 11.0662 166.32 11.3641 166.319 11.9261C166.32 12.0775 166.295 12.2633 166.256 12.5075C166.189 12.9324 166.046 13.8436 166.026 14.0652ZM176.381 10.5553L176.255 11.3385C175.98 11.2 175.779 11.1435 175.565 11.1435C174.989 11.1435 174.585 11.7004 174.585 12.4947C174.585 13.0423 174.856 13.3735 175.305 13.3735C175.495 13.3735 175.705 13.3144 175.961 13.1882L175.825 14.0103C175.541 14.0879 175.357 14.1161 175.143 14.1161C174.312 14.1161 173.794 13.5185 173.794 12.5588C173.794 11.2692 174.509 10.3679 175.533 10.3679C175.87 10.368 176.268 10.5109 176.381 10.5553ZM177.627 12.7584C177.546 12.7491 177.51 12.7465 177.455 12.7465C177.017 12.7465 176.796 12.8966 176.796 13.1929C176.796 13.3753 176.904 13.4919 177.072 13.4919C177.387 13.4918 177.614 13.1924 177.627 12.7584ZM178.189 14.0652H177.549L177.564 13.7616C177.368 14.0014 177.108 14.1161 176.755 14.1161C176.336 14.1161 176.049 13.7893 176.049 13.3147C176.049 12.6003 176.548 12.1839 177.405 12.1839C177.492 12.1839 177.604 12.1919 177.719 12.2066C177.743 12.1098 177.749 12.0684 177.749 12.0161C177.749 11.8216 177.615 11.7495 177.254 11.7495C176.877 11.7452 176.565 11.8395 176.437 11.8811C176.445 11.8325 176.544 11.2219 176.544 11.2219C176.929 11.1087 177.183 11.0662 177.468 11.0662C178.131 11.0662 178.482 11.3641 178.482 11.9261C178.483 12.0775 178.458 12.2633 178.419 12.5075C178.352 12.9324 178.208 13.8436 178.189 14.0652ZM169.457 14.0207C169.246 14.0873 169.081 14.1161 168.903 14.1161C168.508 14.1161 168.293 13.8893 168.293 13.4717C168.287 13.3417 168.35 13.001 168.399 12.6897C168.443 12.4154 168.733 10.6877 168.733 10.6877H169.5L169.411 11.1319H169.805L169.7 11.8367H169.305C169.216 12.3949 169.088 13.0893 169.087 13.1816C169.087 13.3334 169.168 13.3989 169.351 13.3989C169.439 13.3989 169.507 13.3903 169.56 13.3714L169.457 14.0207ZM171.81 13.9973C171.547 14.0778 171.292 14.1167 171.023 14.1161C170.164 14.1153 169.716 13.6666 169.716 12.8074C169.716 11.8043 170.286 11.0662 171.059 11.0662C171.692 11.0662 172.096 11.4794 172.096 12.128C172.096 12.3432 172.068 12.5532 172.001 12.8495H170.473C170.421 13.2751 170.694 13.4525 171.14 13.4525C171.415 13.4525 171.663 13.3957 171.938 13.2673L171.81 13.9973ZM171.379 12.2576C171.383 12.1967 171.46 11.734 171.022 11.734C170.777 11.734 170.603 11.9208 170.531 12.2576H171.379ZM166.489 12.0593C166.489 12.4304 166.669 12.6859 167.077 12.8784C167.39 13.0253 167.438 13.0691 167.438 13.2021C167.438 13.385 167.3 13.4676 166.995 13.4676C166.765 13.4676 166.55 13.4316 166.303 13.3519C166.303 13.3519 166.202 13.9984 166.197 14.0293C166.372 14.0676 166.529 14.1026 167 14.1161C167.815 14.1161 168.191 13.806 168.191 13.1358C168.191 12.7325 168.034 12.4959 167.647 12.3182C167.323 12.1693 167.286 12.1366 167.286 11.9994C167.286 11.8409 167.415 11.7594 167.664 11.7594C167.815 11.7594 168.022 11.776 168.219 11.804L168.329 11.1233C168.129 11.0916 167.826 11.0662 167.649 11.0662C166.786 11.0662 166.487 11.5171 166.489 12.0593ZM182.275 14.0652H181.544L181.581 13.7921C181.369 14.0186 181.152 14.1161 180.869 14.1161C180.308 14.1161 179.937 13.6323 179.937 12.8989C179.937 11.9231 180.512 11.1005 181.193 11.1005C181.492 11.1005 181.719 11.2229 181.93 11.5005L182.101 10.4582H182.863L182.275 14.0652ZM181.136 13.3873C181.496 13.3873 181.748 12.9799 181.748 12.3988C181.748 12.0261 181.604 11.8239 181.339 11.8239C180.989 11.8239 180.74 12.2327 180.74 12.8094C180.74 13.1932 180.873 13.3873 181.136 13.3873ZM178.884 11.1319C178.787 12.0399 178.616 12.9595 178.482 13.8681L178.446 14.0652H179.218C179.495 12.2715 179.561 11.9212 179.994 11.9651C180.063 11.598 180.192 11.2764 180.288 11.1141C179.964 11.0468 179.784 11.2295 179.547 11.5766C179.566 11.4266 179.6 11.2809 179.593 11.1319H178.884ZM172.529 11.1319C172.432 12.0399 172.26 12.9595 172.126 13.8681L172.091 14.0652H172.863C173.139 12.2715 173.206 11.9212 173.639 11.9651C173.708 11.598 173.836 11.2764 173.932 11.1141C173.609 11.0468 173.428 11.2295 173.192 11.5766C173.21 11.4266 173.244 11.2809 173.238 11.1319H172.529ZM182.614 13.8355C182.614 13.7082 182.717 13.6057 182.844 13.6057C182.97 13.6056 183.073 13.7082 183.073 13.8349V13.8355C183.073 13.9623 182.971 14.0651 182.844 14.0652C182.717 14.0651 182.614 13.9623 182.614 13.8355ZM182.844 14.01C182.94 14.01 183.018 13.932 183.018 13.8356V13.8356C183.018 13.7392 182.94 13.661 182.844 13.6609H182.844C182.747 13.661 182.669 13.7391 182.669 13.8356C182.669 13.9319 182.747 14.01 182.844 14.01ZM182.813 13.9359H182.766V13.7345H182.851C182.869 13.7345 182.887 13.7348 182.902 13.7446C182.919 13.7558 182.928 13.775 182.928 13.795C182.928 13.8178 182.915 13.8391 182.893 13.8472L182.93 13.9358H182.878L182.847 13.8562H182.813V13.9358V13.9359ZM182.813 13.8218H182.839C182.848 13.8218 182.859 13.8225 182.867 13.8179C182.875 13.8129 182.879 13.8036 182.879 13.7946C182.879 13.7863 182.875 13.7786 182.868 13.7738C182.86 13.7692 182.846 13.7705 182.838 13.7705H182.813L182.813 13.8218Z" fill="white"/>
<path fill-rule="evenodd" clip-rule="evenodd" d="M210.48 2.28902C209.277 2.28902 208.301 3.26481 208.301 4.46816V19.9584C208.301 21.162 209.276 22.1375 210.48 22.1375H237.024C238.227 22.1375 239.203 21.1617 239.203 19.9584V4.46816C239.203 3.26457 238.228 2.28902 237.024 2.28902L210.48 2.28902Z" fill="#4D4D4D"/>
<path fill-rule="evenodd" clip-rule="evenodd" d="M221.262 8.70285C221.612 8.70285 221.906 8.77353 222.263 8.94413V9.84547C221.925 9.53395 221.631 9.40357 221.243 9.40357C220.48 9.40357 219.879 9.99843 219.879 10.7526C219.879 11.5479 220.461 12.1073 221.281 12.1073C221.65 12.1073 221.938 11.9837 222.263 11.6772V12.579C221.893 12.743 221.593 12.8078 221.243 12.8078C220.004 12.8078 219.041 11.9126 219.041 10.7581C219.041 9.61612 220.029 8.70285 221.262 8.70285ZM217.415 8.72769C217.872 8.72769 218.291 8.87507 218.641 9.16325L218.215 9.68811C218.003 9.46443 217.802 9.37006 217.559 9.37006C217.208 9.37006 216.952 9.55804 216.952 9.80542C216.952 10.0175 217.096 10.1298 217.584 10.2999C218.51 10.6186 218.784 10.9012 218.784 11.5251C218.784 12.2855 218.191 12.8148 217.345 12.8148C216.726 12.8148 216.276 12.5852 215.901 12.0672L216.426 11.5905C216.614 11.9317 216.927 12.1144 217.315 12.1144C217.678 12.1144 217.947 11.8786 217.947 11.5604C217.947 11.3954 217.865 11.254 217.703 11.154C217.621 11.1066 217.459 11.036 217.14 10.9302C216.376 10.6712 216.113 10.3943 216.113 9.85323C216.113 9.21044 216.677 8.72769 217.415 8.72769ZM226.714 8.79615H227.603L228.715 11.4344L229.842 8.79615H230.725L228.922 12.8247H228.484L226.714 8.79615ZM210.972 8.80218H212.166C213.486 8.80218 214.406 9.60966 214.406 10.7688C214.406 11.3469 214.125 11.9057 213.649 12.2766C213.248 12.5896 212.792 12.73 212.16 12.73H210.972V8.80218ZM214.781 8.80218H215.594V12.73H214.781V8.80218ZM231.093 8.80218H233.4V9.46775H231.906V10.3395H233.345V11.0048H231.906V12.065H233.4V12.73H231.093L231.093 8.80218ZM233.939 8.80218H235.146C236.084 8.80218 236.622 9.22648 236.622 9.96187C236.622 10.5633 236.285 10.9579 235.672 11.0753L236.985 12.73H235.985L234.858 11.1521H234.752V12.73H233.939V8.80218ZM234.752 9.42085V10.6104H234.99C235.51 10.6104 235.785 10.3979 235.785 10.0031C235.785 9.62088 235.51 9.42085 235.003 9.42085H234.752ZM211.785 9.46771V12.065H212.003C212.529 12.065 212.861 11.9702 213.117 11.7528C213.399 11.5169 213.568 11.1401 213.568 10.7632C213.568 10.3868 213.399 10.0213 213.117 9.78537C212.848 9.55638 212.529 9.46771 212.003 9.46771H211.785Z" fill="white"/>
<path fill-rule="evenodd" clip-rule="evenodd" d="M224.748 8.67579C225.973 8.67579 226.967 9.60998 226.967 10.764V10.7653C226.967 11.9194 225.973 12.8548 224.748 12.8548C223.522 12.8548 222.528 11.9193 222.528 10.7653V10.764C222.528 9.60994 223.522 8.67575 224.748 8.67575L224.748 8.67579ZM239.202 13.7132C238.17 14.4394 230.443 19.6297 217.066 22.1367H237.024C238.227 22.1367 239.202 21.1609 239.202 19.9576V13.713L239.202 13.7132Z" fill="#F47216"/>
<path d="M260.376 2.28902H291.278V22.0979H260.376V2.28902Z" fill="#2557D6"/>
<path d="M260.386 11.6265H261.87L262.204 10.8536H262.953L263.287 11.6265H266.205V11.0356L266.466 11.6291H267.981L268.241 11.0268V11.6266H275.495L275.491 10.3578H275.631C275.73 10.3611 275.758 10.3697 275.758 10.5252V11.6266H279.51V11.3312C279.812 11.4865 280.283 11.6266 280.902 11.6266H282.48L282.818 10.8536H283.567L283.897 11.6266H286.939V10.8924L287.399 11.6266H289.836V6.77299H287.424V7.34618L287.087 6.77299H284.612V7.34618L284.302 6.77299H280.959C280.399 6.77299 279.907 6.84783 279.51 7.05638V6.77299H277.203V7.05638C276.95 6.84141 276.606 6.77299 276.222 6.77299H267.794L267.229 8.02654L266.648 6.77299H263.993V7.34618L263.702 6.77299H261.438L260.386 9.08057V11.6264H260.386L260.386 11.6265ZM269.75 10.9265H268.86L268.856 8.20102L267.598 10.9264H266.835L265.573 8.1986V10.9264H263.807L263.474 10.1502H261.666L261.329 10.9264H260.386L261.941 7.44654H263.231L264.707 10.7413V7.44654H266.124L267.261 9.80724L268.304 7.44654H269.75L269.75 10.9265ZM263.177 9.42802L262.583 8.04072L261.992 9.42802H263.177ZM273.292 10.9264H270.391V7.4465H273.292V8.17114H271.26V8.79841H273.243V9.51173H271.26V10.2067H273.291L273.292 10.9264ZM277.378 8.38373C277.378 8.93854 276.992 9.22521 276.767 9.31126C276.957 9.38051 277.119 9.50293 277.196 9.60431C277.319 9.7774 277.34 9.93199 277.34 10.2428V10.9264H276.464L276.461 10.4876C276.461 10.2782 276.482 9.97704 276.324 9.80961C276.197 9.68719 276.004 9.66065 275.691 9.66065H274.759V10.9264H273.891V7.4465H275.888C276.332 7.4465 276.658 7.45771 276.939 7.61317C277.214 7.76863 277.378 7.99556 277.378 8.38373ZM276.281 8.90043C276.162 8.96984 276.021 8.97213 275.852 8.97213H274.797V8.19919H275.866C276.017 8.19919 276.175 8.20569 276.278 8.26195C276.39 8.31266 276.46 8.42054 276.46 8.56958C276.46 8.72171 276.394 8.84409 276.281 8.90043ZM278.771 10.9264H277.885V7.4465H278.771V10.9264ZM289.054 10.9264H287.824L286.178 8.31452V10.9264H284.41L284.072 10.1502H282.269L281.941 10.9264H280.925C280.503 10.9264 279.969 10.837 279.666 10.5415C279.361 10.246 279.203 9.84582 279.203 9.21301C279.203 8.69691 279.297 8.2251 279.67 7.85226C279.951 7.57454 280.391 7.4465 280.989 7.4465H281.829V8.19214H281.007C280.69 8.19214 280.511 8.23731 280.339 8.39827C280.191 8.54482 280.089 8.82179 280.089 9.18655C280.089 9.55935 280.166 9.82819 280.328 10.0038C280.461 10.1415 280.704 10.1832 280.933 10.1832H281.323L282.546 7.44662H283.847L285.317 10.7381V7.44665H286.639L288.165 9.87023V7.44665H289.054V10.9264ZM283.777 9.42806L283.176 8.04076L282.579 9.42806H283.777ZM291.266 16.4832C291.055 16.7786 290.645 16.9284 290.088 16.9284H288.412V16.182H290.081C290.247 16.182 290.363 16.1611 290.433 16.0958C290.499 16.0374 290.536 15.955 290.535 15.8689C290.535 15.7674 290.493 15.6869 290.429 15.6386C290.366 15.5855 290.275 15.5614 290.123 15.5614C289.308 15.5348 288.291 15.5855 288.291 14.484C288.291 13.9792 288.626 13.4478 289.537 13.4478H291.266V12.7553H289.659C289.175 12.7553 288.822 12.8666 288.573 13.0395V12.7553H286.196C285.816 12.7553 285.37 12.8456 285.159 13.0395V12.7553H280.915V13.0395C280.578 12.8061 280.008 12.7553 279.745 12.7553H276.945V13.0395C276.678 12.7916 276.084 12.7553 275.722 12.7553H272.589L271.872 13.4987L271.201 12.7553H266.521V17.612H271.112L271.851 16.8568L272.547 17.612L275.377 17.6144V16.4719H275.655C276.031 16.4775 276.474 16.4629 276.865 16.3011V17.6118H279.199V16.346H279.312C279.456 16.346 279.47 16.3517 279.47 16.4892V17.6117H286.562C287.012 17.6117 287.483 17.5013 287.743 17.3009V17.6117H289.993C290.461 17.6117 290.918 17.5488 291.266 17.3879L291.266 16.483L291.266 16.4832ZM277.204 14.615C277.204 15.5819 276.451 15.7815 275.693 15.7815H274.609V16.949H272.922L271.853 15.7967L270.742 16.949H267.303V13.4683H270.795L271.863 14.6092L272.967 13.4683H275.741C276.43 13.4683 277.204 13.651 277.204 14.615ZM270.302 16.2169H268.168V15.5244H270.074V14.8142H268.168V14.1813H270.344L271.294 15.1957L270.302 16.2169ZM273.741 16.6155L272.408 15.1976L273.741 13.8248V16.6155ZM275.713 15.0678H274.591V14.1813H275.723C276.036 14.1813 276.254 14.3038 276.254 14.6081C276.254 14.9092 276.046 15.0678 275.713 15.0678ZM281.59 13.4683H284.488V14.1881H282.455V14.8209H284.438V15.5311H282.455V16.2236L284.488 16.2268V16.949H281.59L281.59 13.4683ZM280.476 15.3315C280.67 15.3998 280.828 15.5223 280.902 15.6236C281.024 15.7936 281.042 15.9522 281.045 16.259V16.949H280.174V16.5136C280.174 16.3041 280.195 15.9941 280.033 15.8322C279.907 15.7075 279.713 15.6778 279.397 15.6778H278.469V16.9491H277.596V13.4683H279.601C280.04 13.4683 280.36 13.4869 280.645 13.6326C280.919 13.7912 281.092 14.0084 281.092 14.4055C281.092 14.9611 280.705 15.2446 280.476 15.3315ZM279.986 14.8914C279.869 14.9575 279.726 14.9632 279.557 14.9632H278.502V14.1814H279.571C279.726 14.1814 279.881 14.1846 279.986 14.2443C280.098 14.3007 280.165 14.4086 280.165 14.5574C280.165 14.7063 280.098 14.8262 279.986 14.8914ZM287.823 15.1132C287.992 15.2807 288.082 15.4923 288.082 15.8506C288.082 16.5993 287.594 16.9489 286.719 16.9489H285.028V16.2025H286.712C286.877 16.2025 286.993 16.1817 287.066 16.1163C287.126 16.0625 287.169 15.9843 287.169 15.8893C287.169 15.7879 287.123 15.7074 287.063 15.6591C286.997 15.606 286.905 15.5819 286.754 15.5819C285.942 15.5554 284.925 15.606 284.925 14.5046C284.925 13.9997 285.256 13.4683 286.167 13.4683H287.907V14.2092H286.314C286.157 14.2092 286.054 14.2149 285.967 14.272C285.872 14.3284 285.836 14.412 285.836 14.5224C285.836 14.6537 285.917 14.743 286.026 14.7817C286.118 14.8122 286.216 14.8211 286.364 14.8211L286.831 14.8333C287.303 14.8442 287.626 14.9223 287.823 15.1132ZM291.268 14.1813H289.686C289.528 14.1813 289.423 14.1871 289.334 14.2442C289.243 14.3006 289.207 14.3842 289.207 14.4947C289.207 14.626 289.285 14.7153 289.397 14.7539C289.489 14.7845 289.587 14.7934 289.732 14.7934L290.202 14.8054C290.677 14.8167 290.994 14.8949 291.187 15.0856C291.222 15.1122 291.244 15.142 291.268 15.1718V14.1813H291.268Z" fill="white"/>
<path fill-rule="evenodd" clip-rule="evenodd" d="M320.767 4.55515H326.634C327.452 4.55515 327.964 5.23114 327.772 6.05782L325.039 17.9026C324.847 18.7293 324.024 19.4052 323.206 19.4052H317.339C316.52 19.4052 316.008 18.7293 316.2 17.9026L318.933 6.05782C319.125 5.22683 319.944 4.55515 320.762 4.55515H320.767Z" fill="#D10429"/>
<path fill-rule="evenodd" clip-rule="evenodd" d="M326.121 4.55515H332.87C333.689 4.55515 333.318 5.23114 333.126 6.05782L330.393 17.9026C330.201 18.7293 330.261 19.4052 329.442 19.4052H322.693C321.87 19.4052 321.362 18.7293 321.558 17.9026L324.291 6.05782C324.483 5.22683 325.302 4.55515 326.125 4.55515H326.121Z" fill="#022E64"/>
<path fill-rule="evenodd" clip-rule="evenodd" d="M332.633 4.55515H338.5C339.319 4.55515 339.831 5.23114 339.639 6.05782L336.906 17.9026C336.714 18.7293 335.891 19.4052 335.072 19.4052H329.205C328.382 19.4052 327.875 18.7293 328.067 17.9026L330.8 6.05782C330.992 5.22683 331.81 4.55515 332.629 4.55515H332.633Z" fill="#076F74"/>
<path fill-rule="evenodd" clip-rule="evenodd" d="M331.648 15.7216H332.202L332.36 15.1834H331.81L331.648 15.7216ZM332.092 14.2405L331.9 14.8777C331.9 14.8777 332.109 14.7701 332.224 14.7356C332.339 14.7098 332.509 14.6883 332.509 14.6883L332.642 14.2448H332.087L332.092 14.2405ZM332.369 13.3277L332.185 13.9391C332.185 13.9391 332.39 13.8444 332.505 13.8142C332.62 13.7841 332.791 13.7755 332.791 13.7755L332.923 13.332H332.373L332.369 13.3277ZM333.592 13.3277L332.876 15.7173H333.068L332.919 16.2124H332.727L332.68 16.3631H331.998L332.045 16.2124H330.663L330.8 15.7561H330.94L331.665 13.3277L331.81 12.8368H332.505L332.433 13.0823C332.433 13.0823 332.616 12.9488 332.795 12.9014C332.97 12.8541 333.976 12.8368 333.976 12.8368L333.827 13.3234H333.588L333.592 13.3277Z" fill="#FEFEFE"/>
<path fill-rule="evenodd" clip-rule="evenodd" d="M333.877 12.8368H334.619L334.627 13.1167C334.623 13.1641 334.662 13.1856 334.751 13.1856H334.9L334.764 13.6463H334.363C334.018 13.6721 333.885 13.5214 333.894 13.3535L333.881 12.8411L333.877 12.8368ZM333.968 15.0288H333.26L333.38 14.6198H334.19L334.305 14.2452H333.508L333.644 13.7845H335.861L335.725 14.2452H334.979L334.864 14.6198H335.61L335.486 15.0288H334.68L334.535 15.201H334.864L334.945 15.7177C334.953 15.7694 334.953 15.8038 334.97 15.8254C334.987 15.8426 335.085 15.8512 335.141 15.8512H335.239L335.085 16.355H334.834C334.795 16.355 334.736 16.3506 334.655 16.3506C334.578 16.342 334.527 16.299 334.476 16.2731C334.429 16.2516 334.361 16.1956 334.343 16.0966L334.267 15.5799L333.9 16.088C333.785 16.2473 333.627 16.3722 333.359 16.3722H332.847L332.983 15.9244H333.179C333.235 15.9244 333.286 15.9029 333.324 15.8813C333.363 15.8641 333.397 15.8469 333.431 15.7909L333.968 15.0288ZM326.226 13.9081H328.098L327.962 14.3602H327.215L327.1 14.7434H327.868L327.727 15.2084H326.964L326.776 15.8327C326.755 15.9016 326.96 15.9102 327.032 15.9102L327.416 15.8585L327.262 16.3752H326.401C326.333 16.3752 326.282 16.3666 326.205 16.3494C326.132 16.3322 326.098 16.2977 326.068 16.2504C326.039 16.1987 325.987 16.1599 326.022 16.048L326.269 15.2213H325.842L325.983 14.7477H326.41L326.525 14.3645H326.098L326.235 13.9124L326.226 13.9081ZM327.519 13.0909H328.287L328.146 13.5602H327.097L326.982 13.6592C326.931 13.7066 326.918 13.6894 326.854 13.7238C326.795 13.7539 326.671 13.8142 326.509 13.8142H326.172L326.309 13.3621H326.411C326.496 13.3621 326.556 13.3535 326.586 13.3363C326.62 13.3148 326.658 13.2674 326.697 13.1899L326.888 12.8368H327.652L327.519 13.0952V13.0909ZM328.966 13.8659C328.966 13.8659 329.175 13.6721 329.533 13.6119C329.614 13.5946 330.126 13.6032 330.126 13.6032L330.202 13.3449H329.124L328.966 13.8702V13.8659ZM329.981 14.0639H328.911L328.847 14.2835H329.776C329.887 14.2706 329.908 14.2878 329.917 14.2792L329.985 14.0639H329.981ZM328.591 12.8411H329.243L329.149 13.1727C329.149 13.1727 329.354 13.0048 329.499 12.9445C329.644 12.8928 329.968 12.8411 329.968 12.8411L331.025 12.8368L330.663 14.051C330.603 14.2577 330.531 14.3912 330.488 14.4558C330.45 14.516 330.403 14.572 330.309 14.6237C330.22 14.671 330.139 14.7012 330.062 14.7055C329.994 14.7098 329.883 14.7141 329.738 14.7141H328.719L328.433 15.6742C328.407 15.769 328.395 15.8163 328.412 15.8422C328.425 15.8637 328.463 15.8895 328.51 15.8895L328.957 15.8465L328.804 16.3718H328.301C328.139 16.3718 328.024 16.3674 327.943 16.3631C327.866 16.3545 327.785 16.3631 327.73 16.3201C327.683 16.277 327.61 16.2211 327.614 16.1651C327.619 16.1134 327.64 16.0273 327.674 15.9067L328.591 12.8411Z" fill="#FEFEFE"/>
<path fill-rule="evenodd" clip-rule="evenodd" d="M330.492 14.7734L330.432 15.0661C330.407 15.1566 330.385 15.2254 330.317 15.2857C330.244 15.346 330.163 15.4106 329.967 15.4106L329.605 15.4278L329.601 15.755C329.596 15.8455 329.622 15.8368 329.635 15.8541C329.652 15.8713 329.665 15.8756 329.682 15.8842L329.797 15.8756L330.142 15.8584L329.997 16.3406H329.601C329.324 16.3406 329.115 16.332 329.051 16.2803C328.982 16.2373 328.974 16.1856 328.974 16.0909L328.999 14.8078H329.635L329.626 15.0704H329.78C329.831 15.0704 329.869 15.0661 329.891 15.0532C329.912 15.0403 329.925 15.0188 329.933 14.9886L329.997 14.782H330.496L330.492 14.7734ZM321.453 8.34578C321.432 8.44911 321.023 10.3479 321.023 10.3479C320.933 10.7311 320.869 11.0067 320.656 11.1832C320.532 11.2865 320.387 11.3339 320.221 11.3339C319.952 11.3339 319.799 11.2004 319.773 10.9464L319.769 10.8603C319.769 10.8603 319.85 10.3479 319.85 10.3436C319.85 10.3436 320.276 8.61272 320.353 8.38453C320.357 8.37161 320.357 8.363 320.357 8.35869C319.526 8.3673 319.377 8.35869 319.368 8.34578C319.364 8.363 319.343 8.47064 319.343 8.47064L318.908 10.4211L318.869 10.5847L318.797 11.1272C318.797 11.2865 318.827 11.42 318.891 11.5276C319.091 11.8807 319.658 11.9324 319.978 11.9324C320.392 11.9324 320.78 11.8419 321.04 11.6826C321.496 11.4114 321.615 10.9851 321.718 10.6105L321.769 10.4168C321.769 10.4168 322.208 8.62134 322.285 8.38883C322.289 8.37592 322.289 8.3673 322.293 8.363C321.688 8.3673 321.513 8.363 321.453 8.35008V8.34578ZM323.885 11.9148C323.591 11.9105 323.485 11.9105 323.139 11.9278L323.126 11.9019C323.156 11.7684 323.19 11.6393 323.216 11.5058L323.259 11.325C323.323 11.0451 323.382 10.7136 323.391 10.6145C323.399 10.5543 323.416 10.4036 323.246 10.4036C323.173 10.4036 323.101 10.438 323.024 10.4725C322.981 10.6232 322.9 11.0451 322.858 11.2346C322.773 11.6393 322.768 11.6866 322.73 11.8847L322.704 11.9105C322.402 11.9062 322.295 11.9062 321.945 11.9234L321.928 11.8933C321.988 11.6522 322.043 11.4111 322.099 11.17C322.244 10.5198 322.282 10.2701 322.321 9.93856L322.35 9.92133C322.691 9.87397 322.773 9.86106 323.143 9.78786L323.173 9.82231L323.118 10.029C323.182 9.99022 323.242 9.95147 323.305 9.92133C323.48 9.83522 323.672 9.80939 323.779 9.80939C323.941 9.80939 324.12 9.85675 324.192 10.0462C324.261 10.2141 324.218 10.4208 324.124 10.8298L324.077 11.0365C323.983 11.4929 323.966 11.5747 323.915 11.8847L323.881 11.9105L323.885 11.9148ZM325.083 11.916C324.904 11.916 324.788 11.9117 324.678 11.916C324.567 11.916 324.46 11.9246 324.294 11.9289L324.285 11.916L324.277 11.8988C324.324 11.7265 324.345 11.6662 324.371 11.606C324.392 11.5457 324.413 11.4854 324.456 11.3089C324.507 11.0807 324.541 10.9214 324.562 10.7793C324.588 10.6458 324.601 10.5296 324.618 10.3961L324.631 10.3875L324.643 10.3746C324.823 10.3487 324.933 10.3315 325.049 10.3143C325.164 10.2971 325.283 10.2755 325.466 10.2411L325.475 10.2583L325.479 10.2755C325.445 10.4176 325.411 10.5597 325.377 10.7018C325.343 10.8439 325.309 10.986 325.279 11.128C325.215 11.4294 325.185 11.5414 325.172 11.6232C325.155 11.7007 325.151 11.7394 325.125 11.8944L325.108 11.9074L325.091 11.9203L325.083 11.916ZM326.976 10.8581C326.963 10.9356 326.895 11.2241 326.805 11.3446C326.741 11.4351 326.669 11.491 326.583 11.491C326.558 11.491 326.413 11.491 326.408 11.2714C326.408 11.1638 326.43 11.0519 326.455 10.9313C326.532 10.5825 326.626 10.2941 326.86 10.2941C327.044 10.2941 327.057 10.5094 326.976 10.8581ZM327.747 10.8926C327.85 10.4362 327.769 10.2209 327.671 10.0917C327.517 9.89365 327.244 9.82906 326.963 9.82906C326.792 9.82906 326.391 9.84629 326.076 10.1391C325.85 10.35 325.743 10.6385 325.684 10.9141C325.62 11.1939 325.547 11.6977 326.008 11.8872C326.148 11.9474 326.353 11.9647 326.485 11.9647C326.822 11.9647 327.167 11.8699 327.428 11.5944C327.628 11.3705 327.717 11.0346 327.752 10.8926H327.747ZM334.934 11.9671C334.576 11.9628 334.474 11.9628 334.146 11.98L334.124 11.9542C334.214 11.614 334.303 11.2696 334.384 10.9251C334.487 10.4774 334.512 10.2879 334.546 10.0253L334.572 10.0037C334.926 9.95207 335.024 9.93916 335.395 9.87027L335.403 9.9004C335.335 10.1846 335.271 10.4644 335.203 10.7443C335.066 11.3342 335.02 11.6356 334.968 11.9456L334.934 11.9714V11.9671Z" fill="#FEFEFE"/>
<path fill-rule="evenodd" clip-rule="evenodd" d="M334.419 10.9157C334.402 10.9889 334.334 11.2817 334.244 11.4023C334.185 11.4884 334.04 11.5443 333.959 11.5443C333.933 11.5443 333.792 11.5443 333.784 11.3291C333.784 11.2214 333.805 11.1095 333.831 10.9889C333.908 10.6488 334.001 10.3603 334.236 10.3603C334.419 10.3603 334.5 10.5713 334.419 10.92V10.9157ZM335.123 10.9502C335.225 10.4938 334.807 10.9114 334.743 10.7607C334.641 10.5239 334.705 10.0503 334.296 9.89099C334.138 9.8264 333.767 9.90821 333.451 10.201C333.23 10.4077 333.119 10.6961 333.059 10.9717C332.995 11.2473 332.923 11.7553 333.379 11.9319C333.524 11.9964 333.656 12.0137 333.788 12.005C334.249 11.9792 334.598 11.2774 334.858 11.0018C335.059 10.7823 335.093 11.0836 335.123 10.9502ZM329.769 11.9148C329.475 11.9105 329.372 11.9105 329.027 11.9278L329.014 11.9019C329.044 11.7684 329.078 11.6393 329.108 11.5058L329.146 11.325C329.21 11.0451 329.274 10.7136 329.278 10.6145C329.287 10.5543 329.304 10.4036 329.138 10.4036C329.065 10.4036 328.988 10.438 328.916 10.4725C328.878 10.6232 328.792 11.0451 328.75 11.2345C328.669 11.6393 328.66 11.6866 328.622 11.8847L328.596 11.9105C328.293 11.9062 328.187 11.9062 327.837 11.9234L327.82 11.8933C327.88 11.6522 327.935 11.4111 327.991 11.17C328.136 10.5198 328.17 10.2701 328.212 9.93856L328.238 9.92133C328.579 9.87397 328.664 9.86106 329.031 9.78786L329.061 9.82231L329.01 10.029C329.07 9.99022 329.133 9.95147 329.193 9.92133C329.368 9.83522 329.56 9.80939 329.666 9.80939C329.828 9.80939 330.003 9.85675 330.08 10.0462C330.148 10.2141 330.101 10.4208 330.008 10.8298L329.961 11.0365C329.863 11.4929 329.85 11.5747 329.799 11.8847L329.765 11.9105L329.769 11.9148ZM332.323 8.35008L332.076 8.35439C331.436 8.363 331.181 8.35869 331.078 8.34578C331.07 8.39314 331.053 8.47494 331.053 8.47494C331.053 8.47494 330.823 9.54274 330.823 9.54704C330.823 9.54704 330.277 11.8204 330.251 11.9281C330.81 11.9194 331.036 11.9194 331.134 11.9324C331.155 11.8247 331.283 11.1918 331.287 11.1918C331.287 11.1918 331.398 10.7268 331.402 10.7096C331.402 10.7096 331.436 10.6622 331.471 10.6407H331.522C332.004 10.6407 332.545 10.6407 332.971 10.3264C333.261 10.1111 333.458 9.78816 333.547 9.40065C333.568 9.30593 333.585 9.19398 333.585 9.07773C333.585 8.92703 333.556 8.78064 333.47 8.66439C333.253 8.35869 332.822 8.35439 332.323 8.35008ZM332.643 9.46524C332.592 9.70205 332.438 9.90441 332.242 9.99913C332.08 10.0809 331.884 10.0896 331.68 10.0896H331.547L331.556 10.0379C331.556 10.0379 331.799 8.97009 331.799 8.9744L331.807 8.91842L331.812 8.87537L331.91 8.88398C331.91 8.88398 332.413 8.92703 332.421 8.92703C332.618 9.00454 332.703 9.20259 332.643 9.46524ZM337.884 9.82231L337.855 9.78786C337.492 9.86106 337.424 9.87397 337.091 9.92133L337.066 9.94717C337.066 9.95147 337.061 9.95578 337.061 9.96439V9.96009C336.814 10.5413 336.818 10.4165 336.618 10.8729C336.618 10.8513 336.618 10.8384 336.614 10.8169L336.563 9.82661L336.533 9.79217C336.149 9.86536 336.14 9.87828 335.791 9.92564L335.765 9.95147C335.761 9.96439 335.761 9.97731 335.761 9.99022L335.765 9.99453C335.808 10.2227 335.799 10.1711 335.842 10.5284C335.863 10.705 335.889 10.8815 335.91 11.0537C335.944 11.3465 335.966 11.4886 336.008 11.9321C335.77 12.3282 335.714 12.4789 335.484 12.8276L335.497 12.8621C335.842 12.8492 335.919 12.8492 336.175 12.8492L336.23 12.7846C336.422 12.3669 337.889 9.82661 337.889 9.82661L337.884 9.82231ZM325.412 10.1075C325.608 9.96974 325.633 9.7803 325.467 9.68127C325.301 9.58224 325.007 9.61238 324.81 9.75016C324.614 9.88363 324.593 10.0731 324.759 10.1764C324.921 10.2711 325.216 10.2453 325.412 10.1075Z" fill="#FEFEFE"/>
<path fill-rule="evenodd" clip-rule="evenodd" d="M336.173 12.8411L335.888 13.3363C335.798 13.5042 335.628 13.6334 335.363 13.6334L334.907 13.6248L335.039 13.177H335.129C335.176 13.177 335.21 13.1727 335.235 13.1598C335.261 13.1511 335.274 13.1339 335.295 13.1081L335.466 12.8368H336.178L336.173 12.8411Z" fill="#FEFEFE"/>
</svg>
