<?xml version="1.0" encoding="UTF-8"?>
<svg id="Layer_1" data-name="Layer 1" xmlns="http://www.w3.org/2000/svg" viewBox="0 0 24 24">
  <defs>
    <style>
      .cls-1 {
        fill: #636262;
      }
    </style>
  </defs>
  <path class="cls-1" d="m12,22l-.25-3h-.25c-2.37,0-4.38-.83-6.03-2.48s-2.48-3.66-2.48-6.03.83-4.38,2.48-6.03,3.66-2.48,6.03-2.48c1.18,0,2.29.22,3.31.66s1.93,1.05,2.7,1.83,1.38,1.68,1.83,2.7.66,2.13.66,3.31c0,1.25-.2,2.45-.61,3.6s-.97,2.22-1.68,3.2c-.71.98-1.55,1.88-2.53,2.68s-2.04,1.48-3.19,2.03Zm2-3.65c1.18-1,2.15-2.17,2.89-3.51s1.11-2.79,1.11-4.34c0-1.82-.63-3.35-1.89-4.61s-2.8-1.89-4.61-1.89-3.35.63-4.61,1.89c-1.26,1.26-1.89,2.8-1.89,4.61s.63,3.35,1.89,4.61c1.26,1.26,2.8,1.89,4.61,1.89h2.5v1.35Zm-2.53-2.38c.28,0,.53-.1.73-.3s.3-.44.3-.73-.1-.53-.3-.73-.44-.3-.73-.3-.53.1-.73.3-.3.44-.3.73.1.53.3.73.44.3.73.3Zm-.73-3.18h1.5c0-.5.05-.85.15-1.05s.42-.57.95-1.1c.3-.3.55-.63.75-.98s.3-.73.3-1.13c0-.85-.29-1.49-.86-1.91s-1.25-.64-2.04-.64c-.73,0-1.35.2-1.85.61s-.85.9-1.05,1.49l1.4.55c.08-.28.24-.56.48-.84s.58-.41,1.03-.41.79.13,1.01.38.34.53.34.83c0,.28-.08.54-.25.76s-.37.45-.6.69c-.58.5-.94.9-1.06,1.19-.13.29-.19.81-.19,1.56Z"/>
</svg>