<?xml version="1.0" encoding="utf-8"?>
<!-- Generator: Adobe Illustrator 27.5.0, SVG Export Plug-In . SVG Version: 6.00 Build 0)  -->
<svg version="1.1" id="Layer_1" xmlns="http://www.w3.org/2000/svg" xmlns:xlink="http://www.w3.org/1999/xlink" x="0px" y="0px"
	 viewBox="0 0 24 24" style="enable-background:new 0 0 24 24;" xml:space="preserve">
<style type="text/css">
	.st0{clip-path:url(#SVGID_00000114032619750328347630000004494110294077846421_);fill:#636262;}
</style>
<g>
	<defs>
		<rect id="SVGID_1_" width="24" height="24"/>
	</defs>
	<clipPath id="SVGID_00000065044190335369935870000008881389766171460261_">
		<use xlink:href="#SVGID_1_"  style="overflow:visible;"/>
	</clipPath>
	<path style="clip-path:url(#SVGID_00000065044190335369935870000008881389766171460261_);fill:#636262;" d="M12.5,21.9l-0.3-3.1H12
		c-2.5,0-4.6-0.9-6.3-2.6s-2.6-3.8-2.6-6.3S4,5.4,5.7,3.7S9.5,1.1,12,1.1c1.2,0,2.4,0.2,3.5,0.7s2,1.1,2.8,1.9
		c0.8,0.8,1.4,1.7,1.9,2.8c0.5,1.1,0.7,2.2,0.7,3.5c0,1.3-0.2,2.6-0.6,3.7c-0.4,1.2-1,2.3-1.8,3.3c-0.7,1-1.6,2-2.6,2.8
		S13.7,21.4,12.5,21.9z M14.8,18.7c1.3-1.1,2.4-2.4,3.3-3.9s1.3-3.1,1.3-4.9c0-2-0.7-3.8-2.1-5.2S14,2.6,12,2.6S8.2,3.3,6.8,4.7
		S4.7,7.9,4.7,9.9s0.7,3.8,2.1,5.2s3.2,2.1,5.2,2.1h2.8V18.7z M12,15.7c0.3,0,0.5-0.1,0.8-0.3c0.2-0.2,0.3-0.5,0.3-0.8
		c0-0.3-0.1-0.5-0.3-0.8c-0.2-0.2-0.5-0.3-0.8-0.3c-0.3,0-0.5,0.1-0.8,0.3c-0.2,0.2-0.3,0.5-0.3,0.8c0,0.3,0.1,0.5,0.3,0.8
		C11.4,15.5,11.7,15.7,12,15.7z M11.2,12.3h1.6c0-0.5,0.1-0.9,0.2-1.1c0.1-0.2,0.4-0.6,1-1.1c0.3-0.3,0.6-0.7,0.8-1
		C14.9,8.7,15,8.3,15,7.9c0-0.9-0.3-1.5-0.9-2S12.8,5.3,12,5.3c-0.8,0-1.4,0.2-1.9,0.6C9.5,6.3,9.2,6.8,9,7.4L10.4,8
		c0.1-0.3,0.3-0.6,0.5-0.9s0.6-0.4,1.1-0.4s0.8,0.1,1.1,0.4c0.2,0.3,0.4,0.5,0.4,0.9c0,0.3-0.1,0.6-0.3,0.8s-0.4,0.5-0.6,0.7
		c-0.6,0.5-1,0.9-1.1,1.2C11.3,11,11.2,11.6,11.2,12.3z"/>
</g>
</svg>
