<?xml version="1.0" encoding="UTF-8"?>
<svg id="Layer_1" data-name="Layer 1" xmlns="http://www.w3.org/2000/svg" viewBox="0 0 35.64 22.84">
  <defs>
    <style>
      .cls-1 {
        fill: #cc8f99;
        stroke: #cc8f99;
        stroke-miterlimit: 10;
        stroke-width: .5px;
      }
    </style>
  </defs>
  <path class="cls-1" d="m14.54,9.59c.13.13.2.28.2.43s-.05.29-.14.4c-.02,0-.37.21-1.06.64-.69.43-1.31.78-1.86,1.05-.21,1.89-.64,3.63-1.29,5.21-.8,2.06-1.84,3.57-3.12,4.53-.71.5-1.44.74-2.21.74h-.11c-1.01-.08-1.82-.58-2.42-1.52-.6-.94-1.03-2.1-1.29-3.49s-.39-2.78-.39-4.15c0-1.09.07-2.08.2-2.98-.53-1.16-.8-2.3-.8-3.41,0-1.85.58-3.45,1.73-4.78C3.14.92,4.44.25,5.89.25c.67,0,1.34.19,2.02.56.68.37,1.31.97,1.9,1.79.69.99,1.19,2.11,1.5,3.37.32,1.25.47,2.55.47,3.91,0,.29,0,.58-.03.89.34-.15.99-.52,1.95-1.12.15-.13.31-.2.46-.2.13,0,.26.05.37.14h.01Zm-3.95,1.15c.02-.31.03-.6.03-.89,0-1.24-.14-2.43-.43-3.57-.29-1.14-.74-2.14-1.35-3.02-.69-.88-1.46-1.32-2.32-1.32s-1.75.4-2.56,1.2c-.81.8-1.4,1.89-1.76,3.26.17-.25.41-.37.72-.37.34,0,.7.17,1.06.52.36.34.54.87.54,1.58v.17c-.06.97-.15,1.85-.29,2.63.44.27.93.46,1.46.57.53.11,1.09.17,1.66.17,1.09,0,2.16-.12,3.21-.37.02-.19.03-.38.03-.57h0Zm-1.29,6.16c.53-1.32.91-2.76,1.12-4.32-1.22.36-2.4.54-3.52.54-.5,0-.99-.04-1.47-.13-.49-.09-.99-.25-1.5-.5-.13,1.09-.2,2.08-.2,2.98,0,1.7.21,3.03.64,3.98.43.95.97,1.43,1.62,1.43.52,0,1.06-.32,1.63-.96s1.14-1.65,1.69-3.02h-.01Z"/>
  <path class="cls-1" d="m25.65,14.77c.11-.27.27-.4.46-.4.15,0,.32.14.52.43v.14c0,1.78-.45,3.43-1.36,4.95-.91,1.53-1.91,2.29-3.02,2.29-.76,0-1.51-.5-2.23-1.49-.29-.44-.48-.95-.59-1.53s-.16-1.18-.16-1.79c0-1.16.09-2.21.26-3.15.1-.46.14-.94.14-1.43,0-.21-.02-.39-.07-.54s-.14-.23-.27-.23c-.34.17-.8,1.06-1.36,2.66-.56,1.6-1.06,2.95-1.47,4.04-.32.5-.73.74-1.2.74-.15,0-.32-.03-.49-.09-.38-.13-.63-.32-.73-.57-.11-.25-.16-.58-.16-1,0-2.04,0-4.19.03-6.44v-.06c0-.31.1-.64.29-1s.46-.56.8-.6h.06c.61,0,.99.21,1.15.63.15.42.23.88.23,1.37v.46c-.04,1.22-.06,2.46-.06,3.72.11-.44.34-1.11.69-2.02.34-.91.75-1.75,1.23-2.52s.97-1.2,1.49-1.27h.06c.53,0,.95.19,1.23.56.29.37.48.86.59,1.46.1.6.16,1.26.16,1.96,0,.82-.03,1.64-.1,2.46s-.1,1.53-.1,2.12c0,.4.03.73.09.97.29.97.63,1.46,1.03,1.46s.85-.35,1.3-1.06c.45-.71.83-1.52,1.15-2.43.32-.92.47-1.71.47-2.38,0-.15,0-.3-.03-.43h-.03Z"/>
  <path class="cls-1" d="m35.05,14.25c.23.1.34.25.34.46v.11c-.44,1.45-1.16,2.85-2.18,4.21-.48.67-1.01,1.25-1.59,1.75-.58.5-1.29.74-2.13.74-.15,0-.31,0-.46-.03-.57-.1-1.06-.33-1.46-.72-.74-.55-1.28-1.26-1.6-2.11s-.49-1.74-.49-2.68c0-1.15.2-2.27.62-3.38.41-1.11.96-2.02,1.66-2.74s1.46-1.07,2.28-1.07c.38,0,.78.1,1.2.29.4.15.67.39.82.72.14.32.21.67.21,1.03,0,.29-.02.55-.06.8-.19.99-.8,2.05-1.83,3.18-.88.88-1.81,1.48-2.81,1.8l-.03.4c0,1.03.18,1.88.54,2.53.36.66.85.99,1.46.99.4,0,.85-.17,1.35-.5s1.03-.86,1.6-1.59c.92-1.24,1.58-2.54,1.98-3.9.1-.23.24-.34.43-.34.04,0,.09,0,.14.03v.02Zm-3.78-3.92c-.8,0-1.55.53-2.23,1.6-.69,1.07-1.15,2.3-1.37,3.69.73-.31,1.41-.79,2.06-1.46.34-.34.71-.83,1.09-1.45.38-.62.57-1.22.57-1.79,0-.21-.04-.41-.11-.6h0Z"/>
</svg>