<?xml version="1.0" encoding="UTF-8"?>
<svg id="Layer_1" data-name="Layer 1" xmlns="http://www.w3.org/2000/svg" viewBox="0 0 446.96 88.49">
  <defs>
    <style>
      .cls-1 {
        fill: #cc8f99;
        stroke: #cc8f99;
        stroke-miterlimit: 10;
        stroke-width: .5px;
      }
    </style>
  </defs>
  <path class="cls-1" d="m52.65,34.48c.49.49.73,1.02.73,1.58s-.18,1.05-.52,1.47c-.07,0-1.36.79-3.88,2.36-2.52,1.57-4.8,2.85-6.83,3.83-.77,6.93-2.35,13.3-4.73,19.11-2.94,7.56-6.76,13.09-11.44,16.59-2.59,1.82-5.29,2.73-8.08,2.73h-.42c-3.71-.28-6.67-2.14-8.87-5.56-2.21-3.43-3.78-7.7-4.73-12.81-.94-5.11-1.42-10.18-1.42-15.22,0-3.99.24-7.63.73-10.92C1.23,33.36.25,29.2.25,25.14.25,18.35,2.37,12.5,6.6,7.6,10.84,2.7,15.61.25,20.94.25c2.45,0,4.92.68,7.4,2.05,2.48,1.37,4.81,3.55,6.98,6.56,2.52,3.64,4.36,7.75,5.51,12.34,1.16,4.59,1.73,9.36,1.73,14.33,0,1.05-.04,2.14-.1,3.25,1.26-.56,3.64-1.92,7.14-4.1.56-.49,1.12-.73,1.68-.73.49,0,.94.18,1.36.52Zm-14.49,4.2c.07-1.12.1-2.21.1-3.25,0-4.55-.53-8.91-1.58-13.07-1.05-4.16-2.7-7.86-4.94-11.08-2.52-3.22-5.35-4.83-8.5-4.83s-6.42,1.47-9.4,4.41c-2.98,2.94-5.13,6.93-6.46,11.97.63-.91,1.5-1.37,2.62-1.37,1.26,0,2.55.63,3.88,1.89,1.33,1.26,2,3.19,2,5.77v.63c-.21,3.57-.56,6.79-1.05,9.66,1.61.98,3.39,1.68,5.35,2.1,1.96.42,3.99.63,6.09.63,3.99,0,7.91-.45,11.76-1.36.07-.7.1-1.4.1-2.1Zm-4.73,22.57c1.96-4.83,3.32-10.11,4.09-15.85-4.48,1.33-8.79,2-12.92,2-1.82,0-3.62-.16-5.41-.47-1.79-.31-3.62-.93-5.51-1.84-.49,3.99-.73,7.63-.73,10.92,0,6.23.79,11.1,2.36,14.6,1.58,3.5,3.55,5.25,5.93,5.25,1.89,0,3.89-1.17,5.98-3.52,2.1-2.34,4.16-6.04,6.2-11.08Z"/>
  <path class="cls-1" d="m93.38,53.48c.42-.98.98-1.47,1.68-1.47.56,0,1.19.52,1.89,1.58v.52c0,6.51-1.66,12.57-4.99,18.17-3.33,5.6-7.02,8.4-11.08,8.4-2.8,0-5.53-1.82-8.19-5.46-1.05-1.61-1.77-3.48-2.15-5.62-.39-2.13-.58-4.32-.58-6.56,0-4.27.32-8.12.95-11.55.35-1.68.52-3.43.52-5.25,0-.77-.09-1.43-.26-2-.18-.56-.51-.84-1-.84-1.26.63-2.92,3.88-4.99,9.76-2.07,5.88-3.87,10.81-5.41,14.81-1.19,1.82-2.66,2.73-4.41,2.73-.56,0-1.16-.1-1.79-.31-1.4-.49-2.29-1.19-2.68-2.1-.39-.91-.58-2.13-.58-3.67,0-7.49.03-15.36.1-23.62v-.21c0-1.12.35-2.34,1.05-3.68.7-1.33,1.68-2.06,2.94-2.21h.21c2.24,0,3.64.77,4.2,2.31.56,1.54.84,3.22.84,5.04v1.68c-.14,4.48-.21,9.03-.21,13.65.42-1.61,1.26-4.08,2.52-7.4,1.26-3.32,2.76-6.41,4.52-9.24,1.75-2.83,3.57-4.39,5.46-4.67h.21c1.96,0,3.47.68,4.52,2.05,1.05,1.37,1.77,3.15,2.15,5.35.38,2.21.58,4.6.58,7.19,0,3.01-.12,6.02-.37,9.03-.25,3.01-.37,5.6-.37,7.77,0,1.47.1,2.66.31,3.57,1.05,3.57,2.31,5.35,3.78,5.35s3.13-1.3,4.78-3.88c1.64-2.59,3.04-5.56,4.2-8.93,1.16-3.36,1.73-6.26,1.73-8.71,0-.56-.04-1.08-.1-1.58Z"/>
  <path class="cls-1" d="m127.82,51.6c.84.35,1.26.91,1.26,1.68v.42c-1.61,5.32-4.27,10.47-7.98,15.43-1.75,2.45-3.69,4.58-5.83,6.41-2.14,1.82-4.74,2.73-7.82,2.73-.56,0-1.12-.04-1.68-.1-2.1-.35-3.89-1.23-5.35-2.62-2.73-2.03-4.69-4.6-5.88-7.72-1.19-3.11-1.79-6.39-1.79-9.82,0-4.2.75-8.33,2.26-12.39,1.5-4.06,3.53-7.4,6.09-10.03,2.55-2.62,5.34-3.94,8.35-3.94,1.4,0,2.87.35,4.41,1.05,1.47.56,2.47,1.44,2.99,2.62.52,1.19.79,2.45.79,3.78,0,1.05-.07,2.03-.21,2.94-.7,3.64-2.94,7.53-6.72,11.66-3.22,3.22-6.65,5.43-10.29,6.61l-.1,1.47c0,3.78.66,6.88,1.99,9.29,1.33,2.42,3.11,3.62,5.36,3.62,1.47,0,3.11-.61,4.93-1.84,1.82-1.22,3.78-3.17,5.88-5.83,3.36-4.55,5.77-9.31,7.24-14.28.35-.84.87-1.26,1.58-1.26.14,0,.31.04.52.1Zm-13.86-14.39c-2.94,0-5.67,1.96-8.19,5.88-2.52,3.92-4.2,8.44-5.04,13.54,2.66-1.12,5.18-2.9,7.56-5.35,1.26-1.26,2.59-3.03,3.99-5.3,1.4-2.27,2.1-4.46,2.1-6.56,0-.77-.14-1.5-.42-2.21Z"/>
  <path class="cls-1" d="m187.4,52.85c.49.35.73.81.73,1.37,0,.28-.14.6-.42.94-2.38,2.59-4.66,4.53-6.82,5.83-2.17,1.3-4.8,1.94-7.88,1.94h-.32c-.42,1.33-.88,2.59-1.36,3.78-1.12,2.66-2.78,5.09-4.99,7.3s-4.71,3.31-7.51,3.31c-2.1,0-4.3-.91-6.61-2.73-2.03-1.75-3.43-4.18-4.2-7.3-.77-3.11-1.15-6.39-1.15-9.82,0-4.76.45-9.13,1.36-13.12.49-1.68,1.14-2.8,1.94-3.36.8-.56,1.59-.84,2.36-.84.84,0,1.43.1,1.79.32.28,0,.52.1.73.31.14-.98.31-1.92.52-2.83.84-3.08,2.34-5.18,4.52-6.3.77-.35,1.54-.52,2.31-.52,1.68,0,3.43.77,5.25,2.31,2.38,2.1,4.1,4.74,5.14,7.93,1.05,3.19,1.58,6.53,1.58,10.03,0,1.54-.07,3.04-.21,4.51-.14,1.26-.35,2.45-.63,3.57,2.38-.14,4.43-.72,6.14-1.73,1.71-1.01,3.03-2.03,3.94-3.05.91-1.01,1.4-1.52,1.47-1.52.35-.42.77-.63,1.26-.63.35,0,.7.1,1.05.31Zm-28.67,19.32c.42.28.95.42,1.58.42,1.19,0,2.59-.75,4.2-2.26,1.61-1.5,3.22-4.11,4.83-7.82-2.24-.56-4.18-1.45-5.83-2.68-1.65-1.22-3.01-2.54-4.1-3.94-1.09-1.4-1.89-2.64-2.42-3.73-.52-1.08-.79-1.66-.79-1.73-.49,3.08-.73,6.13-.73,9.14s.26,5.58.79,7.93c.52,2.35,1.35,3.9,2.47,4.67Zm12.08-16.7c.14-1.33.21-2.66.21-3.99,0-3.08-.44-5.99-1.31-8.72s-2.29-4.97-4.25-6.72c-1.19-1.05-2.21-1.58-3.04-1.58-.28,0-.56.07-.84.21-1.26.7-2.14,2.07-2.62,4.1-.35,1.33-.52,2.77-.52,4.31,0,1.19.1,2.41.31,3.67.49,2.8,1.66,5.37,3.52,7.72,1.85,2.35,4.5,3.9,7.93,4.67.21-1.19.42-2.42.63-3.68Z"/>
  <path class="cls-1" d="m215.75,49.5c.35.35.52.73.52,1.15,0,.49-.17.91-.52,1.26-1.12,1.12-2.66,1.96-4.62,2.52-1.96.56-3.99.84-6.09.84-2.66,0-5.04-.42-7.14-1.26,2.1,2.03,3.69,4.66,4.78,7.88,1.08,3.22,1.63,6.61,1.63,10.19,0,2.8-.35,5.6-1.05,8.4-1.05,2.59-2.28,4.53-3.67,5.83-1.4,1.29-2.83,1.94-4.31,1.94-2.66,0-5.08-2.14-7.24-6.41-1.12-2.66-1.94-5.92-2.47-9.76-.53-3.85-.79-8.01-.79-12.5,0-13.02,1.61-25.97,4.83-38.85.42-1.75,1.35-4.52,2.78-8.29,1.43-3.78,3.24-6.68,5.41-8.71.98-.77,1.92-1.16,2.83-1.16,1.26,0,2.43.54,3.52,1.63,1.08,1.09,1.91,2.4,2.47,3.94.49,1.4.73,3.04.73,4.94,0,3.71-.72,8-2.15,12.86-1.44,4.87-3.1,9.47-4.99,13.81-1.89,4.34-3.57,7.74-5.04,10.19,2.1.98,5.53,1.47,10.29,1.47,1.68,0,3.24-.14,4.67-.42,1.43-.28,2.5-.77,3.2-1.47.35-.35.74-.52,1.16-.52.49,0,.91.18,1.26.52Zm-12.5-41.79c-.84.28-1.98,2.75-3.41,7.4-1.44,4.66-2.78,9.8-4.04,15.44-1.26,5.64-2.14,10.06-2.62,13.28,1.82-2.03,4.09-7.26,6.83-15.7,2.73-8.43,4.09-14.51,4.09-18.22,0-1.33-.28-2.06-.84-2.21Zm-5.25,73.92c1.47-2.31,2.21-5.25,2.21-8.82,0-3.92-.63-7.73-1.89-11.45-1.26-3.71-2.62-5.56-4.1-5.56-.28,0-.52.07-.73.21.07,0,.1.63.1,1.89s.02,2.87.05,4.83c.03,1.96.1,4.04.21,6.25.1,2.21.3,4.27.58,6.19.28,1.92.65,3.52,1.1,4.78.46,1.26,1.03,1.89,1.73,1.89.21,0,.46-.07.74-.21Z"/>
  <path class="cls-1" d="m285.29,52.44c.21.42.32,1.02.32,1.79,0,2.94-1.21,7.21-3.62,12.81-2.42,5.6-5.37,9.73-8.87,12.39-1.4.84-2.77,1.26-4.09,1.26-2.94,0-5.39-1.54-7.35-4.62-.91-1.4-1.52-3.03-1.84-4.88-.32-1.85-.47-3.83-.47-5.93,0-2.38.1-4.74.31-7.09.21-2.34.38-4.46.53-6.35-1.96,4.34-3.67,7.89-5.15,10.66-1.47,2.77-3.04,5.23-4.72,7.4-1.68,2.17-3.25,3.25-4.72,3.25-4.34-.28-7.39-1.66-9.14-4.15-1.75-2.48-2.62-5.44-2.62-8.87,0-2.73.42-5.49,1.26-8.29.56-2.24,1.61-4.76,3.15-7.56,1.54-2.8,3.41-5.27,5.62-7.4,2.21-2.13,4.6-3.2,7.19-3.2,1.68,0,3.39.6,5.14,1.79.77.49,1.22,1.23,1.37,2.2v.21c0,.98-.53,1.57-1.58,1.78h-.74c-2.45,0-4.6,1.56-6.46,4.67-1.86,3.12-3.33,6.67-4.41,10.66-1.09,3.99-1.63,7.28-1.63,9.87,0,1.61.24,2.77.73,3.46.28.42.63.63,1.05.63,1.54,0,3.55-2.33,6.04-6.98,2.48-4.65,4.72-9.38,6.72-14.17,2-4.79,3.17-7.82,3.52-9.08.63-1.19,1.75-1.79,3.36-1.79,1.05,0,2.05.35,2.99,1.05.95.7,1.42,1.93,1.42,3.67v.1c0,.49-.12,2.05-.37,4.67-.25,2.62-.47,5.71-.68,9.24-.21,3.54-.31,6.95-.31,10.24,0,3.71.24,6.69.73,8.93.49,1.82,1.22,2.73,2.21,2.73,1.33,0,2.9-1.45,4.73-4.36,1.82-2.9,3.43-6.21,4.83-9.92,1.4-3.71,2.27-6.96,2.62-9.77-.07-.91.24-1.61.94-2.1.07-.07.17-.1.32-.1.63,0,1.19.39,1.68,1.15Z"/>
  <path class="cls-1" d="m338.67,51.49c.28-.28.63-.42,1.05-.42s.87.21,1.37.63c.49.42.73,1.02.73,1.78v.32c-.56,3.71-2.29,7.95-5.2,12.7-2.91,4.76-5.86,7.98-8.87,9.66-1.47.63-2.91.94-4.31.94-2.03,0-3.88-.6-5.56-1.78-1.68-1.19-2.94-2.87-3.78-5.04v.31c0,2.03-.51,3.55-1.52,4.57-1.02,1.01-2.12,1.52-3.31,1.52-1.12,0-2.14-.4-3.04-1.21-.91-.81-1.47-1.98-1.68-3.52-.42-3.57-.63-7.59-.63-12.08,0-5.11.19-10.32.58-15.65.38-5.32.75-9.87,1.1-13.65.28-3.08.96-7.4,2.05-12.97,1.08-5.56,2.43-9.54,4.04-11.92.49-.98,1.35-1.75,2.57-2.31,1.22-.56,2.5-.84,3.83-.84,1.68,0,3.08.56,4.2,1.68,2.03,1.96,3.05,4.73,3.05,8.29l-.11,1.47c-.42,5.39-1.98,10.94-4.67,16.64-2.7,5.71-5.2,10.52-7.51,14.44v.31c0,1.75-.14,5.81-.42,12.18,2.1-7.35,4.97-14.63,8.61-21.84.84-1.82,2.31-3.01,4.41-3.57.56-.07,1.05-.1,1.47-.1,2.03,0,3.41.7,4.15,2.1.74,1.4,1.1,3.08,1.1,5.04,0,3.78-.8,7.28-2.42,10.5-1.4,3.57-5.14,8.86-11.23,15.85.63,2.87,1.4,4.94,2.31,6.19.91,1.26,1.89,1.89,2.94,1.89,1.75,0,3.55-1.22,5.41-3.67,1.85-2.45,3.55-5.21,5.09-8.29,1.54-3.08,2.66-5.74,3.36-7.98.14-.84.42-1.58.84-2.21Zm-19.22-45.68c-1.4.49-2.54,3.04-3.41,7.67-.88,4.62-1.54,9.38-2,14.28-.46,4.9-.75,8.05-.89,9.45.28-.35.86-1.5,1.73-3.46.88-1.96,1.84-4.36,2.89-7.19s1.98-5.7,2.78-8.61c.8-2.9,1.21-5.44,1.21-7.61,0-2.38-.77-3.88-2.31-4.52Zm-2.62,51.87c1.4-.77,3.18-3.41,5.36-7.93,2.17-4.52,3.57-8.1,4.2-10.76.07-.77.1-1.37.1-1.79-.14-.49-.35-.73-.63-.73-.14,0-.28.04-.42.1-.56.28-1.02.7-1.37,1.26-.77,1.54-2.19,4.81-4.25,9.82-2.07,5.01-3.1,8.21-3.1,9.61,0,.21.03.35.1.42Z"/>
  <path class="cls-1" d="m359.98,54.01c.42-1.33.98-2,1.68-2,1.05,0,1.78.88,2.21,2.62v.1c-.14,1.26-.49,3.1-1.05,5.51-.56,2.41-1.38,4.9-2.47,7.45-1.09,2.56-2.5,4.76-4.25,6.62-1.75,1.85-3.85,2.78-6.3,2.78-1.12,0-2.35-.28-3.67-.84-4.41-1.82-7.14-5.07-8.19-9.77-.49-2.87-.74-6.26-.74-10.18,0-5.67.25-11.03.74-16.07,0-1.68.16-3.76.47-6.25.32-2.48,1.24-4.11,2.78-4.88.56-.14,1.08-.21,1.58-.21,2.1,0,3.36,1.16,3.78,3.46v1.68c0,2.31-.14,5.65-.42,10.03-.28,4.38-.42,8.7-.42,12.97s.3,8.26.89,11.55c.59,3.29,1.77,4.94,3.52,4.94.28,0,.59-.04.95-.1,3.29-1.05,6.26-7.52,8.92-19.42Zm-16.8-28.25c-1.26,0-2.33-.61-3.2-1.84-.88-1.22-1.31-2.71-1.31-4.46s.44-3.24,1.31-4.46c.87-1.22,1.94-1.84,3.2-1.84s2.34.61,3.25,1.84c.91,1.23,1.37,2.71,1.37,4.46s-.46,3.24-1.37,4.46c-.91,1.23-2,1.84-3.25,1.84Z"/>
  <path class="cls-1" d="m403.24,53.48c.42-.98.98-1.47,1.68-1.47.56,0,1.19.52,1.89,1.58v.52c0,6.51-1.66,12.57-4.99,18.17-3.33,5.6-7.02,8.4-11.08,8.4-2.8,0-5.53-1.82-8.19-5.46-1.05-1.61-1.77-3.48-2.15-5.62-.39-2.13-.58-4.32-.58-6.56,0-4.27.32-8.12.95-11.55.35-1.68.53-3.43.53-5.25,0-.77-.09-1.43-.26-2-.18-.56-.51-.84-1-.84-1.26.63-2.92,3.88-4.99,9.76-2.07,5.88-3.87,10.81-5.41,14.81-1.19,1.82-2.66,2.73-4.41,2.73-.56,0-1.16-.1-1.79-.31-1.4-.49-2.29-1.19-2.68-2.1-.38-.91-.58-2.13-.58-3.67,0-7.49.03-15.36.11-23.62v-.21c0-1.12.35-2.34,1.05-3.68.7-1.33,1.68-2.06,2.94-2.21h.21c2.24,0,3.64.77,4.2,2.31.56,1.54.84,3.22.84,5.04v1.68c-.14,4.48-.21,9.03-.21,13.65.42-1.61,1.26-4.08,2.52-7.4,1.26-3.32,2.76-6.41,4.51-9.24,1.75-2.83,3.57-4.39,5.46-4.67h.21c1.96,0,3.46.68,4.52,2.05,1.05,1.37,1.77,3.15,2.15,5.35.38,2.21.58,4.6.58,7.19,0,3.01-.12,6.02-.37,9.03-.25,3.01-.37,5.6-.37,7.77,0,1.47.11,2.66.32,3.57,1.05,3.57,2.31,5.35,3.78,5.35s3.13-1.3,4.78-3.88c1.64-2.59,3.04-5.56,4.2-8.93,1.15-3.36,1.73-6.26,1.73-8.71,0-.56-.04-1.08-.11-1.58Z"/>
  <path class="cls-1" d="m444.93,51.39h.32c.98.14,1.47.73,1.47,1.78,0,.28-.07.6-.21.95-.14,2.24-.51,4.8-1.1,7.67-.6,2.87-1.44,5.69-2.52,8.45-1.09,2.77-2.5,5.09-4.25,6.98-1.75,1.89-3.88,2.83-6.4,2.83-1.05,0-2.17-.21-3.36-.63-2.66-.98-4.62-2.28-5.88-3.88-1.26-1.61-2.07-3.24-2.42-4.88-.35-1.64-.53-2.85-.53-3.62v-.84c-.77,1.96-1.77,3.75-2.99,5.35-1.23,1.61-2.75,2.42-4.57,2.42-.42,0-.91-.07-1.47-.21-2.17-.98-3.97-2.69-5.41-5.15-1.44-2.45-2.29-4.9-2.57-7.35-.21-1.05-.32-2.24-.32-3.57,0-2.87.58-6.11,1.73-9.71,1.15-3.6,2.8-6.7,4.93-9.29,2.13-2.59,4.74-3.89,7.82-3.89,1.26,0,2.59.28,3.99.84.21-1.12.77-5.06,1.68-11.81.91-6.75,2.06-11.95,3.46-15.59.91-2.03,2.03-3.52,3.36-4.46,1.33-.94,2.69-1.42,4.09-1.42,2.03,0,3.83.84,5.41,2.52,1.57,1.68,2.4,4.06,2.47,7.14l.11.52c0,3.71-.84,7.81-2.52,12.29-1.68,4.48-3.48,8.56-5.41,12.23-1.93,3.67-3.48,6.35-4.67,8.03l-.63,22.16v.52c0,2.87.42,5.04,1.26,6.51.84,1.47,1.89,2.21,3.15,2.21,1.05,0,2.13-.6,3.25-1.78,1.12-1.19,2.17-3.01,3.15-5.46,1.26-3.36,2.17-6.53,2.73-9.5.56-2.97.91-4.92,1.05-5.83.14-.63.31-1.21.52-1.73.21-.52.63-.79,1.26-.79Zm-28.56,12.6c2.87-7.91,4.3-14.24,4.3-19,0-1.05-.14-1.82-.42-2.31-.14-.28-.28-.45-.42-.52-.14-.07-.31-.1-.52-.1-1.05,0-2.05.81-2.99,2.42-.94,1.61-1.75,3.29-2.42,5.04-.67,1.75-1.14,2.98-1.42,3.67-.77,2.59-1.16,5.56-1.16,8.93,0,1.33.12,2.5.37,3.52.25,1.02.65,1.66,1.21,1.94.14.07.28.1.42.1.7,0,1.33-.45,1.89-1.37.56-.91.95-1.68,1.16-2.31Zm19-58.17h-.1c-1.12,0-2.12,2.36-2.99,7.09-.88,4.72-1.59,9.66-2.15,14.8-.56,5.15-.84,8.35-.84,9.61v.21c.63-1.19,1.63-3.36,2.99-6.51,1.37-3.15,2.66-6.63,3.89-10.45,1.22-3.81,1.84-7.09,1.84-9.82,0-1.33-.19-2.43-.58-3.31-.39-.87-1.07-1.42-2.05-1.63Z"/>
</svg>