<svg width="24" height="24" viewBox="0 0 24 24" fill="none" xmlns="http://www.w3.org/2000/svg">
<g clip-path="url(#clip0_6_939)">
<path d="M12 1C13.7504 1 15.4292 1.69868 16.6669 2.94234C17.9046 4.18601 18.6 5.87277 18.6 7.63158V8.73684H23V10.9474H21.7163L20.8836 20.9865C20.8607 21.2627 20.7354 21.5201 20.5325 21.7079C20.3295 21.8956 20.0638 21.9998 19.788 22H4.212C3.93617 21.9998 3.67047 21.8956 3.46754 21.7079C3.26462 21.5201 3.13929 21.2627 3.1164 20.9865L2.2826 10.9474H1V8.73684H5.4V7.63158C5.4 5.87277 6.09536 4.18601 7.3331 2.94234C8.57084 1.69868 10.2496 1 12 1V1ZM19.5086 10.9474H4.4903L5.224 19.7895H18.7749L19.5086 10.9474ZM13.1 13.1579V17.5789H10.9V13.1579H13.1ZM8.7 13.1579V17.5789H6.5V13.1579H8.7ZM17.5 13.1579V17.5789H15.3V13.1579H17.5ZM12 3.21053C10.8711 3.21053 9.78545 3.64648 8.96751 4.42822C8.14956 5.20996 7.66194 6.27768 7.6055 7.41053L7.6 7.63158V8.73684H16.4V7.63158C16.4 6.49731 15.9661 5.40643 15.1881 4.58458C14.4101 3.76272 13.3475 3.27277 12.22 3.21605L12 3.21053Z" fill="#636262"/>
</g>
<defs>
<clipPath id="clip0_6_939">
<rect width="24" height="24" fill="white"/>
</clipPath>
</defs>
</svg>
