<?xml version="1.0" encoding="utf-8"?>
<!-- Generator: Adobe Illustrator 27.5.0, SVG Export Plug-In . SVG Version: 6.00 Build 0)  -->
<svg version="1.1" id="Layer_1" xmlns="http://www.w3.org/2000/svg" xmlns:xlink="http://www.w3.org/1999/xlink" x="0px" y="0px"
	 viewBox="0 0 96 24" style="enable-background:new 0 0 96 24;" xml:space="preserve">
<style type="text/css">
	.st0{clip-path:url(#SVGID_00000183952854776363114320000010405036389002858159_);}
	.st1{fill:#1877F2;}
	.st2{fill:#FFFFFF;}
	.st3{fill:#1DA1F2;}
	.st4{fill:url(#SVGID_00000058574299420662313890000005002940695897304493_);}
</style>
<g>
	<defs>
		<rect id="SVGID_1_" width="24" height="24"/>
	</defs>
	<clipPath id="SVGID_00000170962322177450858850000012090186627573835162_">
		<use xlink:href="#SVGID_1_"  style="overflow:visible;"/>
	</clipPath>
	<g style="clip-path:url(#SVGID_00000170962322177450858850000012090186627573835162_);">
		<path class="st1" d="M24,12c0-6.6-5.4-12-12-12C5.4,0,0,5.4,0,12c0,6,4.4,11,10.1,11.9v-8.4h-3V12h3V9.4c0-3,1.8-4.7,4.5-4.7
			c1.3,0,2.7,0.2,2.7,0.2v3h-1.5c-1.5,0-2,0.9-2,1.9V12h3.3l-0.5,3.5h-2.8v8.4C19.6,23,24,18,24,12z"/>
		<path class="st2" d="M16.7,15.5l0.5-3.5h-3.3V9.8c0-0.9,0.5-1.9,2-1.9h1.5v-3c0,0-1.4-0.2-2.7-0.2c-2.7,0-4.5,1.7-4.5,4.7V12h-3
			v3.5h3v8.4c1.2,0.2,2.5,0.2,3.8,0v-8.4H16.7z"/>
	</g>
</g>
<path class="st3" d="M43.5,21.8c9.1,0,14-7.5,14-14c0-0.2,0-0.4,0-0.6c1-0.7,1.8-1.6,2.5-2.5c-0.9,0.4-1.9,0.7-2.8,0.8
	c1-0.6,1.8-1.6,2.2-2.7c-1,0.6-2,1-3.1,1.2c-0.7-0.8-1.7-1.3-2.8-1.5c-1.1-0.2-2.2,0-3.1,0.5c-1,0.5-1.7,1.3-2.2,2.3
	c-0.4,1-0.6,2.1-0.3,3.1c-2-0.1-3.9-0.6-5.6-1.5c-1.7-0.9-3.3-2.1-4.5-3.7c-0.6,1.1-0.8,2.4-0.5,3.6c0.3,1.2,1,2.3,2.1,3
	c-0.8,0-1.6-0.2-2.2-0.6v0.1c0,1.1,0.4,2.2,1.1,3.1c0.7,0.9,1.7,1.5,2.8,1.7c-0.7,0.2-1.5,0.2-2.2,0.1c0.3,1,0.9,1.8,1.8,2.4
	c0.8,0.6,1.8,1,2.8,1c-1,0.8-2.2,1.4-3.4,1.7c-1.3,0.4-2.6,0.5-3.8,0.3C38.3,21,40.9,21.8,43.5,21.8"/>
<radialGradient id="SVGID_00000035501315421822347230000017764745701152497806_" cx="-490.0205" cy="686.6794" r="1" gradientTransform="matrix(501.3 0 0 -501.3 245770.3125 344618.2188)" gradientUnits="userSpaceOnUse">
	<stop  offset="9.000000e-02" style="stop-color:#FA8F21"/>
	<stop  offset="0.78" style="stop-color:#D82D7E"/>
</radialGradient>
<path style="fill:url(#SVGID_00000035501315421822347230000017764745701152497806_);" d="M80,12c0-2.2,1.8-4,4-4c2.2,0,4,1.8,4,4
	c0,2.2-1.8,4-4,4C81.8,16,80,14.2,80,12z M77.8,12c0,3.4,2.8,6.2,6.2,6.2c3.4,0,6.2-2.8,6.2-6.2S87.4,5.8,84,5.8
	C80.6,5.8,77.8,8.6,77.8,12z M89,5.6C89,6.4,89.6,7,90.4,7c0.8,0,1.4-0.6,1.4-1.4c0-0.8-0.6-1.4-1.4-1.4C89.6,4.2,89,4.8,89,5.6z
	 M79.2,21.8c-1.2-0.1-1.8-0.2-2.2-0.4c-0.6-0.2-1-0.5-1.4-0.9c-0.4-0.4-0.7-0.8-0.9-1.4c-0.2-0.4-0.4-1.1-0.4-2.2
	c-0.1-1.3-0.1-1.6-0.1-4.8c0-3.2,0-3.6,0.1-4.8c0.1-1.2,0.2-1.8,0.4-2.2c0.2-0.6,0.5-1,0.9-1.4c0.4-0.4,0.8-0.7,1.4-0.9
	c0.4-0.2,1.1-0.4,2.2-0.4c1.3-0.1,1.6-0.1,4.8-0.1c3.2,0,3.6,0,4.8,0.1c1.2,0.1,1.8,0.2,2.2,0.4c0.6,0.2,1,0.5,1.4,0.9
	s0.7,0.8,0.9,1.4c0.2,0.4,0.4,1.1,0.4,2.2c0.1,1.3,0.1,1.6,0.1,4.8c0,3.2,0,3.6-0.1,4.8c-0.1,1.2-0.2,1.8-0.4,2.2
	c-0.2,0.6-0.5,1-0.9,1.4s-0.8,0.7-1.4,0.9c-0.4,0.2-1.1,0.4-2.2,0.4c-1.3,0.1-1.6,0.1-4.8,0.1C80.8,21.8,80.4,21.8,79.2,21.8z
	 M79.1,0.1c-1.3,0.1-2.2,0.3-2.9,0.6C75.4,0.9,74.7,1.3,74,2c-0.7,0.7-1.1,1.3-1.4,2.1c-0.3,0.8-0.5,1.6-0.6,2.9
	C72,8.3,72,8.7,72,12c0,3.3,0,3.7,0.1,4.9c0.1,1.3,0.3,2.1,0.6,2.9c0.3,0.8,0.7,1.5,1.4,2.1c0.7,0.7,1.3,1.1,2.1,1.4
	c0.8,0.3,1.6,0.5,2.9,0.6C80.3,24,80.7,24,84,24c3.3,0,3.7,0,4.9-0.1c1.3-0.1,2.2-0.3,2.9-0.6c0.8-0.3,1.5-0.7,2.1-1.4
	s1.1-1.3,1.4-2.1c0.3-0.8,0.5-1.6,0.6-2.9C96,15.7,96,15.3,96,12c0-3.3,0-3.7-0.1-4.9c-0.1-1.3-0.3-2.2-0.6-2.9
	C95.1,3.4,94.7,2.7,94,2c-0.7-0.7-1.3-1.1-2.1-1.4c-0.8-0.3-1.6-0.5-2.9-0.6C87.7,0,87.3,0,84,0C80.7,0,80.3,0,79.1,0.1z"/>
</svg>
